<svg xmlns="http://www.w3.org/2000/svg" xmlns:xlink="http://www.w3.org/1999/xlink" viewBox="0 0 633 509" width="633" height="509" preserveAspectRatio="xMidYMid meet" style="width: 100%; height: 100%; transform: translate3d(0px, 0px, 0px); content-visibility: visible;"><defs><clipPath id="__lottie_element_5"><rect width="633" height="509" x="0" y="0"></rect></clipPath></defs><g clip-path="url(#__lottie_element_5)"><g transform="matrix(1,0,0,1,298,256)" opacity="1" style="display: block;"><g opacity="1" transform="matrix(1,0,0,1,0,0)"><path stroke-linecap="round" stroke-linejoin="round" fill-opacity="0" stroke="#FFF8F0" stroke-opacity="1" stroke-width="20px" d=" M-284.8949890136719,-190.56900024414062 C-284.8949890136719,-190.56900024414062 -217.69012451171875,-190.56900024414062 -217.69012451171875,-190.56900024414062 C-217.69012451171875,-190.56900024414062 1.4534834623336792,-189.94236755371094 1.4534834623336792,-189.94236755371094 C1.4534834623336792,-189.94236755371094 217.53663635253906,-190.56900024414062 217.53663635253906,-190.56900024414062 C217.53663635253906,-190.56900024414062 285.07598876953125,-190.56900024414062 285.07598876953125,-190.56900024414062"></path></g></g><g transform="matrix(1,0,0,1,298,256)" opacity="1" style="display: block;"><g opacity="1" transform="matrix(1,0,0,1,0,0)"><path stroke-linecap="round" stroke-linejoin="round" fill-opacity="0" stroke="#FFF8F0" stroke-opacity="1" stroke-width="20px" d=" M-284.8949890136719,190.56900024414062 C-284.8949890136719,190.56900024414062 -219.56785583496094,190.56900024414062 -219.56785583496094,190.56900024414062 C-219.56785583496094,190.56900024414062 -0.034850481897592545,189.9290313720703 -0.034850481897592545,189.9290313720703 C-0.034850481897592545,189.9290313720703 215.6389617919922,190.56900024414062 215.6389617919922,190.56900024414062 C215.6389617919922,190.56900024414062 285.07598876953125,190.56900024414062 285.07598876953125,190.56900024414062"></path></g></g><g transform="matrix(1,0,0,1,298,256)" opacity="1" style="display: block;"><g opacity="1" transform="matrix(1,0,0,1,0,0)"><path stroke-linecap="round" stroke-linejoin="round" fill-opacity="0" stroke="#FFF8F0" stroke-opacity="1" stroke-width="20px" d=" M-280.0460510253906,0.041999999433755875 C-280.0460510253906,0.041999999433755875 280.22705078125,0.041999999433755875 280.22705078125,0.041999999433755875"></path></g></g></g></svg>