<svg xmlns:xlink="http://www.w3.org/1999/xlink" xmlns="http://www.w3.org/2000/svg" width="28" height="29" viewBox="0 0 28 29" fill="none" preserveAspectRatio="xMidYMid meet" aria-hidden="true" role="img">
<path d="M3.90186 2.67712C4.1558 3.21674 7.35123 4.65575 13.4986 4.65575C19.5825 4.65575 22.7675 3.24849 23.0849 2.64538C22.8098 2.09517 19.646 0.666748 13.4986 0.666748C7.35123 0.666748 4.17668 2.09517 3.90186 2.67712Z" fill="#FFFFFF" fill-opacity="0.5"></path>
<path d="M3.89111 9.78742C4.04983 10.1366 5.46767 10.9936 8.75833 11.4909C10.938 8.60222 14.3662 6.85651 18.0802 6.85651C19.879 6.85651 21.5824 7.25859 23.0956 7.98867V5.19531C20.5879 6.39095 16.3769 6.77187 13.4989 6.77187C10.6208 6.77187 6.39921 6.39095 3.8914 5.19531L3.89111 9.78742Z" fill="#FFFFFF" fill-opacity="0.5"></path>
<path d="M15.4243 27.7858C15.837 27.9022 16.2497 27.9975 16.6729 28.0609C17.1279 28.135 17.604 28.1668 18.0802 28.1668C23.3706 28.1668 27.6769 23.8605 27.6769 18.57C27.6769 15.3111 26.0474 12.4331 23.5608 10.6978C23.5185 10.6661 23.4867 10.6449 23.4444 10.6132C21.9102 9.57626 20.0585 8.97314 18.08 8.97314C14.8846 8.97314 11.9431 10.5391 10.1762 13.1316C10.1339 13.1845 10.1022 13.2374 10.0704 13.2903C9.93286 13.4913 9.80589 13.7029 9.67892 13.9251C9.65776 13.9675 9.64718 13.9992 9.62601 14.031C9.61543 14.0521 9.60485 14.0733 9.59427 14.0839C9.59427 14.0944 9.59427 14.1156 9.58369 14.1262C9.57664 14.1332 9.57311 14.1403 9.57311 14.1473C8.85361 15.5017 8.48328 17.0253 8.48328 18.5702C8.48328 19.4061 8.58909 20.2419 8.81128 21.0461V21.0567C8.82187 21.0778 8.83245 21.1096 8.83245 21.1307C9.71066 24.305 12.1867 26.8337 15.3503 27.7648C15.3714 27.7754 15.4032 27.7754 15.4243 27.786V27.7858ZM24.5028 17.2789C25.0847 17.2789 25.5608 17.755 25.5608 18.337C25.5608 18.9189 25.0847 19.395 24.5028 19.395C23.9208 19.395 23.4447 18.9189 23.4447 18.337C23.4447 17.755 23.9208 17.2789 24.5028 17.2789ZM11.6575 19.395C11.0756 19.395 10.5995 18.9189 10.5995 18.337C10.5995 17.755 11.0756 17.2789 11.6575 17.2789C12.2501 17.2789 12.7156 17.755 12.7156 18.337C12.7156 18.9189 12.2501 19.395 11.6575 19.395ZM14.7579 20.4002C14.7579 19.8183 15.234 19.3421 15.816 19.3421C16.3979 19.3421 16.8741 19.8183 16.8741 20.4002V20.6859C16.8741 20.9293 17.0645 21.1197 17.3079 21.1197H18.8633C19.0961 21.1197 19.2971 20.9293 19.2971 20.6859C19.2971 20.5272 19.2124 20.3791 19.0643 20.305L16.1017 18.7285C15.2764 18.2735 14.7579 17.4164 14.7579 16.4747C14.7579 15.1627 15.7525 14.0834 17.0222 13.9459V13.0783C17.0222 12.4963 17.4983 12.0202 18.0803 12.0202C18.6622 12.0202 19.1384 12.4963 19.1384 13.0783V13.9353C20.4187 14.0729 21.4133 15.1627 21.4133 16.4747V16.7604C21.4133 17.3424 20.9371 17.8185 20.3552 17.8185C19.7732 17.8185 19.2971 17.3424 19.2971 16.7604V16.4747C19.2971 16.2314 19.0961 16.0409 18.8633 16.0409H17.3079C17.0645 16.0409 16.8741 16.2314 16.8741 16.4747C16.8741 16.6334 16.9587 16.7816 17.1069 16.8556L20.0695 18.4428C20.8948 18.8872 21.4133 19.7442 21.4133 20.6859C21.4133 21.9979 20.4187 23.0878 19.1384 23.2253V24.0824C19.1384 24.6643 18.6622 25.1405 18.0803 25.1405C17.4983 25.1405 17.0222 24.6643 17.0222 24.0824V23.2253C15.7525 23.0772 14.7579 21.9979 14.7579 20.6859V20.4002Z" fill="#FFFFFF" fill-opacity="0.5"></path>
<path d="M2.79072 11.6713C2.22994 11.2269 1.84902 10.6767 1.79612 10.0312C1.77496 9.95716 1.77496 9.89367 1.77496 9.81961C1.77496 9.75612 1.78554 9.69264 1.79612 9.62915H1.77496C0.769772 9.9889 0.335955 10.3381 0.208984 10.4968C0.367698 10.7084 1.04488 11.2163 2.79072 11.6713Z" fill="#FFFFFF" fill-opacity="0.5"></path>
<path d="M6.98074 22.3367C5.88032 22.2627 4.84339 22.1357 3.89111 21.9558V26.167C4.08157 26.6431 6.53634 27.807 11.287 28.1033C9.30839 26.6855 7.78488 24.6751 6.98074 22.3366V22.3367Z" fill="#FFFFFF" fill-opacity="0.5"></path>
<path d="M2.99158 19.6066C3.02333 19.6171 3.05507 19.6171 3.08681 19.6277C4.092 19.8817 5.24532 20.0615 6.48342 20.1779C6.40936 19.6489 6.36703 19.1093 6.36703 18.5696C6.36703 17.1624 6.62097 15.7657 7.11828 14.4642C5.46766 14.3584 3.92285 14.1256 2.58965 13.7976C1.62679 13.5649 0.822642 13.2898 0.166626 12.9829V18.3368C0.272435 18.5273 0.960193 19.1093 2.99158 19.6066Z" fill="#FFFFFF" fill-opacity="0.5"></path>
</svg>