<svg xmlns:xlink="http://www.w3.org/1999/xlink" xmlns="http://www.w3.org/2000/svg" width="184" height="67" viewBox="0 0 184 67" fill="none" preserveAspectRatio="xMidYMid meet" aria-hidden="true" role="img">
<g filter="url(#filter0_b_1247_8)" fill="none">
<rect y="0.5" width="183.333" height="65.8333" rx="32.9167" fill="#FFFFFF" fill-opacity="0.13"></rect>
<rect x="0.625" y="1.125" width="182.083" height="64.5833" rx="32.2917" stroke="url(&quot;#paint0_linear_1247_8&quot;)" stroke-width="1.25px" fill="none"></rect>
</g>
<path d="M43.4395 46.8803H39.7061V35.8203H43.4395V46.8803ZM47.1028 43.147H36.0428V39.5537H47.1028V43.147Z" fill="#FFFFFF" fill-opacity="0.5"></path>
<path d="M57.028 35.4703H52.9447V31.2003H57.028V35.4703ZM57.028 51.5003H52.9447V47.277H57.028V51.5003ZM55.208 49.4003C53.7147 49.4003 52.4702 49.1825 51.4747 48.747C50.4791 48.2959 49.7325 47.6737 49.2347 46.8803C48.7369 46.0714 48.488 45.1225 48.488 44.0337V43.7303H52.8047V43.917C52.8047 44.337 52.8747 44.6637 53.0147 44.897C53.1547 45.1148 53.4036 45.2625 53.7614 45.3403C54.1347 45.4181 54.6714 45.457 55.3714 45.457C56.1958 45.457 56.7325 45.387 56.9814 45.247C57.2458 45.107 57.378 44.8659 57.378 44.5237C57.378 44.2748 57.3391 44.0803 57.2614 43.9403C57.1991 43.8003 57.0747 43.6914 56.888 43.6137C56.7014 43.5203 56.4291 43.4503 56.0714 43.4037L52.6647 42.867C51.6069 42.6959 50.7436 42.4081 50.0747 42.0037C49.4214 41.5837 48.9391 41.0625 48.628 40.4403C48.3325 39.8025 48.1847 39.0792 48.1847 38.2703C48.1847 37.337 48.4258 36.497 48.908 35.7503C49.3902 35.0037 50.1291 34.4125 51.1247 33.977C52.1202 33.5259 53.3802 33.3003 54.9047 33.3003C56.3669 33.3003 57.5725 33.5259 58.5214 33.977C59.4702 34.4125 60.178 35.0192 60.6447 35.797C61.1114 36.5592 61.3447 37.4303 61.3447 38.4103V38.807H57.028V38.527C57.028 38.2159 56.958 37.967 56.818 37.7803C56.6936 37.5937 56.4602 37.4614 56.118 37.3837C55.7758 37.2903 55.278 37.2437 54.6247 37.2437C53.8002 37.2437 53.248 37.3137 52.968 37.4537C52.688 37.5937 52.548 37.8114 52.548 38.107C52.548 38.2625 52.5869 38.3948 52.6647 38.5037C52.7425 38.6125 52.8669 38.7059 53.038 38.7837C53.2247 38.8459 53.4658 38.9081 53.7614 38.9703L57.168 39.577C58.2725 39.7637 59.1591 40.0825 59.828 40.5337C60.5125 40.9692 61.0025 41.5059 61.298 42.1437C61.6091 42.7814 61.7647 43.5048 61.7647 44.3137C61.7647 45.2159 61.5391 46.0559 61.088 46.8337C60.6525 47.6114 59.9525 48.2337 58.988 48.7003C58.0391 49.167 56.7791 49.4003 55.208 49.4003ZM70.1897 49.167H65.803V38.9003H62.233V35.4703H63.003C63.7341 35.4703 64.3486 35.3225 64.8463 35.027C65.3441 34.7314 65.7641 34.2337 66.1063 33.5337H70.1897V49.167ZM78.283 49.4003C76.2297 49.4003 74.6586 48.9648 73.5697 48.0937C72.4964 47.207 71.9597 46.0092 71.9597 44.5003V44.127H76.2997V44.477C76.2997 44.7259 76.3697 44.9203 76.5097 45.0603C76.6497 45.1848 76.8753 45.2781 77.1864 45.3403C77.5131 45.387 77.9486 45.4103 78.493 45.4103C79.2553 45.4103 79.8075 45.317 80.1497 45.1303C80.4919 44.9281 80.663 44.5625 80.663 44.0337C80.663 43.427 80.4842 43.0381 80.1264 42.867C79.7842 42.6959 79.2086 42.6103 78.3997 42.6103C77.8242 42.6103 77.3186 42.6648 76.883 42.7737C76.4475 42.8825 76.1053 42.9914 75.8564 43.1003L75.3664 42.7503V39.9503H76.2297C76.4942 39.7481 76.9219 39.5303 77.5131 39.297C78.1197 39.0637 78.9208 38.947 79.9164 38.947C81.0364 38.947 81.9697 39.157 82.7164 39.577C83.4786 39.9814 84.0464 40.557 84.4197 41.3037C84.7931 42.0348 84.9797 42.8903 84.9797 43.8703C84.9797 44.897 84.7619 45.8303 84.3264 46.6703C83.9064 47.5103 83.2064 48.1792 82.2264 48.677C81.2619 49.1592 79.9475 49.4003 78.283 49.4003ZM76.2297 37.477L75.8564 43.1003L71.9364 42.6337L72.333 33.5337H84.1397V37.477H76.2297ZM98.8946 49.167H86.0846V46.717C86.0846 45.737 86.2324 44.9437 86.5279 44.337C86.8235 43.7303 87.2279 43.2325 87.7413 42.8437C88.2701 42.4548 88.869 42.097 89.5379 41.7703L93.6913 39.7403C93.9246 39.6314 94.1113 39.5303 94.2513 39.437C94.3913 39.3281 94.4924 39.2037 94.5546 39.0637C94.6168 38.9081 94.6479 38.7137 94.6479 38.4803C94.6479 38.1848 94.5857 37.9514 94.4613 37.7803C94.3368 37.6092 94.119 37.4848 93.8079 37.407C93.4968 37.3292 93.0613 37.2903 92.5013 37.2903C91.879 37.2903 91.4124 37.3448 91.1013 37.4537C90.7901 37.5625 90.5801 37.7414 90.4713 37.9903C90.3779 38.2237 90.3313 38.5425 90.3313 38.947V39.367H85.9446V38.9937C85.9446 37.9514 86.1701 37.0025 86.6213 36.147C87.0879 35.2759 87.8268 34.5837 88.8379 34.0703C89.849 33.557 91.1868 33.3003 92.8513 33.3003C94.2979 33.3003 95.4724 33.5259 96.3746 33.977C97.2924 34.4281 97.9613 35.0425 98.3813 35.8203C98.8168 36.5825 99.0346 37.4381 99.0346 38.387C99.0346 39.3825 98.8246 40.2148 98.4046 40.8837C97.9846 41.537 97.4479 42.0737 96.7946 42.4937C96.1413 42.8981 95.4724 43.217 94.7879 43.4503L91.8713 44.4303C91.4201 44.5859 91.1324 44.7414 91.0079 44.897C90.8835 45.0525 90.8213 45.2392 90.8213 45.457L93.0613 45.2237H98.8946V49.167ZM105.438 49.167H100.212V44.337H105.438V49.167ZM101.565 53.2737H100.212V50.3803H101.425C101.705 50.3803 101.907 50.3259 102.032 50.217C102.172 50.1081 102.242 49.8825 102.242 49.5403V48.6303H105.438V49.4703C105.438 50.7459 105.096 51.6948 104.412 52.317C103.743 52.9548 102.794 53.2737 101.565 53.2737ZM112.709 49.167H108.323V38.9003H104.753V35.4703H105.523C106.254 35.4703 106.868 35.3225 107.366 35.027C107.864 34.7314 108.284 34.2337 108.626 33.5337H112.709V49.167ZM120.985 49.4003C119.352 49.4003 118.045 49.1981 117.065 48.7937C116.085 48.3892 115.377 47.8137 114.942 47.067C114.506 46.3048 114.288 45.4103 114.288 44.3837V43.3337H118.605V44.127C118.605 44.407 118.667 44.6248 118.792 44.7803C118.916 44.9359 119.142 45.0525 119.468 45.1303C119.795 45.1925 120.262 45.2237 120.868 45.2237C121.693 45.2237 122.315 45.1692 122.735 45.0603C123.155 44.9359 123.365 44.5859 123.365 44.0103C123.365 43.5592 123.264 43.2637 123.062 43.1237C122.859 42.9681 122.533 42.8903 122.082 42.8903H119.258V39.4837H121.545C121.996 39.4837 122.299 39.4137 122.455 39.2737C122.626 39.1337 122.712 38.8692 122.712 38.4803C122.712 38.0759 122.579 37.8114 122.315 37.687C122.066 37.547 121.514 37.477 120.658 37.477C120.098 37.477 119.67 37.5081 119.375 37.5703C119.079 37.6325 118.877 37.7492 118.768 37.9203C118.659 38.0759 118.605 38.2937 118.605 38.5737V39.0637H114.288V38.317C114.288 37.2903 114.545 36.4037 115.058 35.657C115.587 34.8948 116.349 34.3114 117.345 33.907C118.356 33.5025 119.585 33.3003 121.032 33.3003C122.214 33.3003 123.256 33.4481 124.158 33.7437C125.076 34.0392 125.792 34.4903 126.305 35.097C126.834 35.6881 127.098 36.4503 127.098 37.3837C127.098 38.3637 126.834 39.1414 126.305 39.717C125.776 40.2925 124.975 40.627 123.902 40.7203V41.0237C125.224 41.0703 126.204 41.4359 126.842 42.1203C127.495 42.7892 127.822 43.6681 127.822 44.757C127.822 45.7214 127.573 46.5537 127.075 47.2537C126.577 47.9381 125.823 48.467 124.812 48.8403C123.8 49.2137 122.525 49.4003 120.985 49.4003ZM135.505 49.4003C133.234 49.4003 131.508 48.9881 130.325 48.1637C129.159 47.3392 128.575 46.2037 128.575 44.757C128.575 44.0103 128.715 43.3803 128.995 42.867C129.291 42.3537 129.664 41.9414 130.115 41.6303C130.566 41.3192 131.049 41.1092 131.562 41.0003V40.7903C130.94 40.5725 130.364 40.1992 129.835 39.6703C129.322 39.1259 129.065 38.3637 129.065 37.3837C129.065 36.5903 129.291 35.8903 129.742 35.2837C130.193 34.6614 130.893 34.1792 131.842 33.837C132.791 33.4792 134.012 33.3003 135.505 33.3003C137.014 33.3003 138.235 33.4792 139.169 33.837C140.118 34.1792 140.818 34.6614 141.269 35.2837C141.72 35.8903 141.945 36.5903 141.945 37.3837C141.945 38.037 141.821 38.5892 141.572 39.0403C141.339 39.4914 141.028 39.8648 140.639 40.1603C140.265 40.4403 139.869 40.6503 139.449 40.7903V41.0003C139.962 41.1092 140.444 41.3192 140.895 41.6303C141.346 41.9414 141.712 42.3537 141.992 42.867C142.288 43.3803 142.435 44.0103 142.435 44.757C142.435 46.2037 141.844 47.3392 140.662 48.1637C139.495 48.9881 137.776 49.4003 135.505 49.4003ZM135.505 45.5503C136.205 45.5503 136.734 45.5037 137.092 45.4103C137.45 45.317 137.683 45.1614 137.792 44.9437C137.916 44.7259 137.979 44.4459 137.979 44.1037C137.979 43.7459 137.916 43.4659 137.792 43.2637C137.683 43.0459 137.45 42.8903 137.092 42.797C136.734 42.7037 136.205 42.657 135.505 42.657C134.805 42.657 134.276 42.7037 133.919 42.797C133.576 42.8903 133.343 43.0459 133.219 43.2637C133.094 43.4659 133.032 43.7459 133.032 44.1037C133.032 44.4459 133.094 44.7259 133.219 44.9437C133.343 45.1614 133.576 45.317 133.919 45.4103C134.276 45.5037 134.805 45.5503 135.505 45.5503ZM135.505 39.717C136.345 39.717 136.898 39.6237 137.162 39.437C137.426 39.2503 137.559 38.9314 137.559 38.4803C137.559 38.1848 137.504 37.9514 137.395 37.7803C137.286 37.5937 137.084 37.4614 136.789 37.3837C136.493 37.2903 136.065 37.2437 135.505 37.2437C134.945 37.2437 134.518 37.2903 134.222 37.3837C133.926 37.4614 133.724 37.5937 133.615 37.7803C133.506 37.9514 133.452 38.1848 133.452 38.4803C133.452 38.9314 133.584 39.2503 133.849 39.437C134.113 39.6237 134.665 39.717 135.505 39.717Z" fill="#FFFFFF"></path>
<path d="M36.705 19.9704H35.2144C35.1872 19.7775 35.1316 19.6062 35.0477 19.4565C34.9637 19.3045 34.8559 19.1752 34.7244 19.0685C34.5928 18.9619 34.4408 18.8802 34.2683 18.8235C34.0982 18.7668 33.9133 18.7384 33.7136 18.7384C33.3529 18.7384 33.0387 18.828 32.7709 19.0073C32.5032 19.1842 32.2956 19.4429 32.1482 19.7832C32.0007 20.1213 31.927 20.5319 31.927 21.0152C31.927 21.512 32.0007 21.9295 32.1482 22.2675C32.2979 22.6056 32.5066 22.8608 32.7743 23.0332C33.0421 23.2057 33.3517 23.2919 33.7034 23.2919C33.9008 23.2919 34.0834 23.2658 34.2513 23.2136C34.4215 23.1614 34.5723 23.0854 34.7039 22.9856C34.8355 22.8835 34.9444 22.7598 35.0306 22.6146C35.1191 22.4694 35.1804 22.3038 35.2144 22.1178L36.705 22.1246C36.6664 22.4445 36.57 22.753 36.4157 23.0502C36.2637 23.3452 36.0584 23.6095 35.7998 23.8432C35.5434 24.0746 35.2371 24.2584 34.8809 24.3945C34.527 24.5284 34.1265 24.5953 33.6796 24.5953C33.0579 24.5953 32.5021 24.4546 32.012 24.1733C31.5242 23.892 31.1385 23.4847 30.855 22.9516C30.5736 22.4184 30.433 21.7729 30.433 21.0152C30.433 20.2551 30.5759 19.6085 30.8618 19.0753C31.1476 18.5422 31.5356 18.1361 32.0256 17.857C32.5157 17.5757 33.067 17.435 33.6796 17.435C34.0834 17.435 34.4578 17.4917 34.8026 17.6052C35.1498 17.7186 35.4572 17.8842 35.7249 18.102C35.9926 18.3176 36.2104 18.5819 36.3783 18.895C36.5485 19.2081 36.6574 19.5665 36.705 19.9704ZM45.7956 21.0152C45.7956 21.7752 45.6516 22.4218 45.3634 22.955C45.0776 23.4881 44.6873 23.8954 44.1927 24.1767C43.7004 24.4558 43.1468 24.5953 42.532 24.5953C41.9126 24.5953 41.3568 24.4546 40.8644 24.1733C40.3721 23.892 39.983 23.4847 39.6971 22.9516C39.4113 22.4184 39.2683 21.7729 39.2683 21.0152C39.2683 20.2551 39.4113 19.6085 39.6971 19.0753C39.983 18.5422 40.3721 18.1361 40.8644 17.857C41.3568 17.5757 41.9126 17.435 42.532 17.435C43.1468 17.435 43.7004 17.5757 44.1927 17.857C44.6873 18.1361 45.0776 18.5422 45.3634 19.0753C45.6516 19.6085 45.7956 20.2551 45.7956 21.0152ZM44.3016 21.0152C44.3016 20.5228 44.2279 20.1076 44.0804 19.7696C43.9352 19.4315 43.7299 19.1752 43.4645 19.0005C43.199 18.8258 42.8882 18.7384 42.532 18.7384C42.1758 18.7384 41.865 18.8258 41.5995 19.0005C41.3341 19.1752 41.1276 19.4315 40.9801 19.7696C40.8349 20.1076 40.7623 20.5228 40.7623 21.0152C40.7623 21.5075 40.8349 21.9227 40.9801 22.2607C41.1276 22.5988 41.3341 22.8551 41.5995 23.0298C41.865 23.2045 42.1758 23.2919 42.532 23.2919C42.8882 23.2919 43.199 23.2045 43.4645 23.0298C43.7299 22.8551 43.9352 22.5988 44.0804 22.2607C44.2279 21.9227 44.3016 21.5075 44.3016 21.0152ZM54.346 17.5303V24.5H53.0732L50.041 20.1133H49.9899V24.5H48.5164V17.5303H49.8096L52.818 21.9136H52.8792V17.5303H54.346ZM56.9272 18.7452V17.5303H62.6513V18.7452H60.5175V24.5H59.061V18.7452H56.9272ZM65.2232 24.5V17.5303H69.9196V18.7452H66.6968V20.406H69.6779V21.6209H66.6968V23.2851H69.9332V24.5H65.2232ZM78.5499 17.5303V24.5H77.2771L74.2449 20.1133H74.1938V24.5H72.7203V17.5303H74.0135L77.0219 21.9136H77.0831V17.5303H78.5499ZM81.1311 18.7452V17.5303H86.8552V18.7452H84.7215V24.5H83.2649V18.7452H81.1311ZM99.4238 19.9704H97.9332C97.906 19.7775 97.8504 19.6062 97.7665 19.4565C97.6825 19.3045 97.5747 19.1752 97.4432 19.0685C97.3116 18.9619 97.1596 18.8802 96.9871 18.8235C96.817 18.7668 96.6321 18.7384 96.4324 18.7384C96.0717 18.7384 95.7574 18.828 95.4897 19.0073C95.222 19.1842 95.0144 19.4429 94.867 19.7832C94.7195 20.1213 94.6457 20.5319 94.6457 21.0152C94.6457 21.512 94.7195 21.9295 94.867 22.2675C95.0167 22.6056 95.2254 22.8608 95.4931 23.0332C95.7609 23.2057 96.0705 23.2919 96.4222 23.2919C96.6196 23.2919 96.8022 23.2658 96.9701 23.2136C97.1403 23.1614 97.2911 23.0854 97.4227 22.9856C97.5543 22.8835 97.6632 22.7598 97.7494 22.6146C97.8379 22.4694 97.8992 22.3038 97.9332 22.1178L99.4238 22.1246C99.3852 22.4445 99.2888 22.753 99.1345 23.0502C98.9825 23.3452 98.7772 23.6095 98.5186 23.8432C98.2622 24.0746 97.9559 24.2584 97.5997 24.3945C97.2458 24.5284 96.8453 24.5953 96.3984 24.5953C95.7767 24.5953 95.2209 24.4546 94.7308 24.1733C94.243 23.892 93.8573 23.4847 93.5737 22.9516C93.2924 22.4184 93.1518 21.7729 93.1518 21.0152C93.1518 20.2551 93.2947 19.6085 93.5806 19.0753C93.8664 18.5422 94.2544 18.1361 94.7444 17.857C95.2345 17.5757 95.7858 17.435 96.3984 17.435C96.8022 17.435 97.1766 17.4917 97.5214 17.6052C97.8686 17.7186 98.176 17.8842 98.4437 18.102C98.7114 18.3176 98.9292 18.5819 99.0971 18.895C99.2673 19.2081 99.3762 19.5665 99.4238 19.9704ZM102.11 24.5V17.5303H104.859C105.386 17.5303 105.835 17.6245 106.207 17.8128C106.581 17.9988 106.866 18.2631 107.061 18.6057C107.259 18.946 107.357 19.3465 107.357 19.807C107.357 20.2699 107.258 20.668 107.058 21.0015C106.858 21.3328 106.569 21.5869 106.19 21.7638C105.813 21.9408 105.357 22.0293 104.822 22.0293H102.981V20.845H104.584C104.865 20.845 105.099 20.8064 105.285 20.7293C105.471 20.6521 105.609 20.5364 105.7 20.3822C105.793 20.2279 105.84 20.0362 105.84 19.807C105.84 19.5756 105.793 19.3805 105.7 19.2217C105.609 19.0629 105.47 18.9426 105.281 18.8609C105.095 18.777 104.861 18.735 104.577 18.735H103.583V24.5H102.11ZM105.874 21.3282L107.606 24.5H105.979L104.284 21.3282H105.874ZM110.028 24.5V17.5303H114.724V18.7452H111.501V20.406H114.483V21.6209H111.501V23.2851H114.738V24.5H110.028ZM118.726 24.5H117.147L119.553 17.5303H121.452L123.855 24.5H122.276L120.53 19.123H120.476L118.726 24.5ZM118.628 21.7604H122.357V22.9107H118.628V21.7604ZM125.206 18.7452V17.5303H130.93V18.7452H128.796V24.5H127.34V18.7452H125.206ZM134.975 17.5303V24.5H133.502V17.5303H134.975ZM144.222 21.0152C144.222 21.7752 144.078 22.4218 143.789 22.955C143.504 23.4881 143.113 23.8954 142.619 24.1767C142.126 24.4558 141.573 24.5953 140.958 24.5953C140.339 24.5953 139.783 24.4546 139.291 24.1733C138.798 23.892 138.409 23.4847 138.123 22.9516C137.837 22.4184 137.694 21.7729 137.694 21.0152C137.694 20.2551 137.837 19.6085 138.123 19.0753C138.409 18.5422 138.798 18.1361 139.291 17.857C139.783 17.5757 140.339 17.435 140.958 17.435C141.573 17.435 142.126 17.5757 142.619 17.857C143.113 18.1361 143.504 18.5422 143.789 19.0753C144.078 19.6085 144.222 20.2551 144.222 21.0152ZM142.728 21.0152C142.728 20.5228 142.654 20.1076 142.507 19.7696C142.361 19.4315 142.156 19.1752 141.891 19.0005C141.625 18.8258 141.314 18.7384 140.958 18.7384C140.602 18.7384 140.291 18.8258 140.026 19.0005C139.76 19.1752 139.554 19.4315 139.406 19.7696C139.261 20.1076 139.188 20.5228 139.188 21.0152C139.188 21.5075 139.261 21.9227 139.406 22.2607C139.554 22.5988 139.76 22.8551 140.026 23.0298C140.291 23.2045 140.602 23.2919 140.958 23.2919C141.314 23.2919 141.625 23.2045 141.891 23.0298C142.156 22.8551 142.361 22.5988 142.507 22.2607C142.654 21.9227 142.728 21.5075 142.728 21.0152ZM152.772 17.5303V24.5H151.499L148.467 20.1133H148.416V24.5H146.942V17.5303H148.236L151.244 21.9136H151.305V17.5303H152.772Z" fill="url(&quot;#paint1_linear_1247_8&quot;)"></path>
<path d="M90.0001 10.5L83.5049 1.125H96.4953L90.0001 10.5Z" fill="#FFFFFF" fill-opacity="0.2"></path>
<defs>
<filter id="filter0_b_1247_8" x="-8.33333" y="-7.83333" width="200" height="82.4997" filterUnits="userSpaceOnUse" color-interpolation-filters="sRGB">
<feFlood flood-opacity="0" result="BackgroundImageFix"></feFlood>
<feGaussianBlur in="BackgroundImageFix" stdDeviation="4.16667"></feGaussianBlur>
<feComposite in2="SourceAlpha" operator="in" result="effect1_backgroundBlur_1247_8"></feComposite>
<feBlend mode="normal" in="SourceGraphic" in2="effect1_backgroundBlur_1247_8" result="shape"></feBlend>
</filter>
<linearGradient id="paint0_linear_1247_8" x1="91.6667" y1="0.499999" x2="109.167" y2="128.833" gradientUnits="userSpaceOnUse">
<stop stop-color="white"></stop>
<stop offset="1" stop-color="white" stop-opacity="0"></stop>
</linearGradient>
<linearGradient id="paint1_linear_1247_8" x1="31.2501" y1="11.8999" x2="174.698" y2="35.7213" gradientUnits="userSpaceOnUse">
<stop stop-color="#FFCF23"></stop>
<stop offset="1" stop-color="#FF8D3A"></stop>
</linearGradient>
<linearGradient id="paint0_linear_1247_8" x1="91.6667" y1="0.499999" x2="109.167" y2="128.833" gradientUnits="userSpaceOnUse">
<stop stop-color="white"></stop>
<stop offset="1" stop-color="white" stop-opacity="0"></stop>
</linearGradient><linearGradient id="paint1_linear_1247_8" x1="31.2501" y1="11.8999" x2="174.698" y2="35.7213" gradientUnits="userSpaceOnUse">
<stop stop-color="#FFCF23"></stop>
<stop offset="1" stop-color="#FF8D3A"></stop>
</linearGradient></defs>
</svg>