<svg xmlns:xlink="http://www.w3.org/1999/xlink" xmlns="http://www.w3.org/2000/svg" width="28" height="21" viewBox="0 0 28 21" fill="none" preserveAspectRatio="xMidYMid meet" aria-hidden="true" role="img">
<path d="M16.7602 20.6898L28 10.5517L16.7602 0.413666C16.6587 0.294052 16.5298 0.195404 16.3821 0.124403C16.2344 0.0534009 16.0714 0.0117023 15.9042 0.00212918C15.737 -0.00744391 15.5694 0.0153327 15.4129 0.0689163C15.2563 0.1225 15.1144 0.20564 14.9968 0.312708C14.8792 0.419775 14.7886 0.548272 14.7311 0.689497C14.6736 0.830722 14.6506 0.981379 14.6637 1.13127C14.6767 1.28116 14.7255 1.42678 14.8068 1.55828C14.888 1.68978 14.9998 1.80408 15.1345 1.89345L23.5439 9.50225L1.16959 9.50225C0.859396 9.50225 0.561907 9.61282 0.342567 9.80964C0.123226 10.0065 1.44626e-07 10.2734 1.32459e-07 10.5517C1.20292e-07 10.8301 0.123226 11.097 0.342567 11.2938C0.561907 11.4907 0.859396 11.6012 1.16959 11.6012L23.5439 11.6012L15.1345 19.21C14.9158 19.4077 14.7936 19.6751 14.7947 19.9536C14.7958 20.2321 14.9201 20.4988 15.1403 20.6951C15.3606 20.8913 15.6587 21.001 15.969 21C16.2794 20.999 16.5766 20.8874 16.7953 20.6898L16.7602 20.6898Z" fill="#FFFFFF"></path>
</svg>