<svg xmlns:xlink="http://www.w3.org/1999/xlink" xmlns="http://www.w3.org/2000/svg" width="320" height="90" viewBox="0 0 289 81" fill="none" preserveAspectRatio="xMidYMid meet" aria-hidden="true" role="img">
<path d="M252.147 16.7352C206.161 5.68217 172.629 3.92414 124.024 0.528809C146.582 2.86612 201.338 7.5266 225.423 12.4127C260.882 19.563 277.219 25.4431 283.942 33.351C285.892 35.6277 286.014 36.0115 285.591 37.8395C284.935 40.5747 282.009 43.9305 278.44 45.9341C274.734 48.068 259.383 53.7891 249.118 56.8248C240.017 59.5309 220.311 64.1877 209.271 66.2918C175.873 72.5745 130.309 76.8083 97.537 76.7162C79.8171 76.6881 66.3025 75.7185 52.8825 73.5104C29.0975 69.5243 14.8635 64.182 7.58606 56.5052C5.08465 53.8267 4.63111 51.5537 5.80624 47.7695C6.88345 44.3006 8.74061 42.0536 12.2818 39.9838C27.4729 31.0436 73.1739 23.5676 118.958 22.514C134.718 22.164 157.292 22.8929 169.626 24.2449C174.59 24.7491 218.746 30.3359 233.551 32.2826C240.09 33.1606 236.99 32.2554 220.269 28.3884C202.105 24.1886 197.701 23.282 180.698 20.4798C142.342 14.1012 98.4285 13.4881 61.8853 18.852C35.7728 22.6719 20.2523 27.0726 10.2456 33.4736C4.76742 36.9588 2.84499 39.4161 1.22427 44.7907C-1.4296 53.6479 0.41738 57.9672 9.39525 64.2128C13.5366 67.0547 13.7569 67.1232 27.0184 71.2414C40.869 75.4848 45.1248 76.403 59.1321 78.2748C102.734 84.0927 173.813 79.8297 225.513 68.2811C253.355 62.0017 279.282 52.2462 284.646 46.0171C288.481 41.4453 289.741 36.7655 287.899 33.8307C286.538 31.6793 281.96 28.0676 277.627 25.685C273.979 23.7452 258.358 18.2028 252.147 16.7352Z" fill="#FFFFFF" fill-opacity="0.1"></path>
</svg>