<svg xmlns:xlink="http://www.w3.org/1999/xlink" xmlns="http://www.w3.org/2000/svg" width="111" height="29" viewBox="0 0 111 29" fill="none" preserveAspectRatio="xMidYMid meet" aria-hidden="true" role="img">
<path d="M4.29719 14.5606V3.95455H4.97664V14.5606H4.29719ZM6.58412 7.13636C6.5344 6.71654 6.33278 6.39063 5.97924 6.15862C5.62571 5.92661 5.19207 5.81061 4.67834 5.81061C4.30271 5.81061 3.97403 5.87137 3.69231 5.9929C3.41335 6.11443 3.19515 6.28153 3.03772 6.4942C2.88304 6.70687 2.80571 6.94855 2.80571 7.21922C2.80571 7.44571 2.85957 7.64043 2.96729 7.80339C3.07776 7.96358 3.21863 8.09754 3.38987 8.20526C3.56111 8.31021 3.74064 8.39721 3.92846 8.46626C4.11627 8.53255 4.2889 8.58641 4.44633 8.62784L5.30808 8.85985C5.52904 8.91785 5.77485 8.99795 6.04553 9.10014C6.31897 9.20234 6.57997 9.34182 6.82855 9.51858C7.0799 9.69259 7.28705 9.91631 7.45 10.1897C7.61296 10.4632 7.69444 10.7988 7.69444 11.1965C7.69444 11.655 7.57429 12.0693 7.334 12.4394C7.09647 12.8095 6.74846 13.1037 6.28997 13.3219C5.83424 13.54 5.28046 13.6491 4.62862 13.6491C4.02099 13.6491 3.49483 13.5511 3.05014 13.355C2.60823 13.1589 2.26021 12.8855 2.00611 12.5347C1.75477 12.1839 1.61253 11.7765 1.57938 11.3125H2.63999C2.66761 11.6329 2.77533 11.898 2.96314 12.108C3.15372 12.3151 3.39401 12.4698 3.68402 12.572C3.97679 12.6714 4.29166 12.7211 4.62862 12.7211C5.02083 12.7211 5.37298 12.6576 5.68509 12.5305C5.99719 12.4007 6.24439 12.2212 6.42668 11.992C6.60898 11.7599 6.70012 11.4893 6.70012 11.1799C6.70012 10.8982 6.6214 10.669 6.46397 10.4922C6.30654 10.3154 6.09939 10.1718 5.84252 10.0613C5.58566 9.95084 5.30808 9.85417 5.00978 9.77131L3.96575 9.47301C3.30287 9.28243 2.77809 9.01038 2.39141 8.65684C2.00473 8.30331 1.81139 7.84067 1.81139 7.26894C1.81139 6.79388 1.93982 6.37958 2.19669 6.02604C2.45632 5.66974 2.80433 5.39354 3.24072 5.19744C3.67988 4.99858 4.17013 4.89915 4.71148 4.89915C5.25836 4.89915 5.74447 4.9972 6.16982 5.1933C6.59517 5.38664 6.93213 5.65179 7.18071 5.98875C7.43205 6.32572 7.56463 6.70825 7.57844 7.13636H6.58412Z" fill="#FFCF23"></path>
<path d="M11.1807 23.4396V19.5112L22.753 1.22727H26.0289V6.82031H24.0314L16.2411 19.1649V19.378H32.3943V23.4396H11.1807ZM24.1912 28.5V22.2411L24.2444 20.4833V1.22727H28.9053V28.5H24.1912ZM44.2422 0.854402C45.5473 0.863281 46.8168 1.0941 48.0508 1.54688C49.2937 1.99077 50.4123 2.71875 51.4066 3.73082C52.4009 4.73402 53.1911 6.07901 53.777 7.7658C54.3629 9.45259 54.6559 11.5389 54.6559 14.0247C54.6648 16.3684 54.4162 18.4636 53.9102 20.3102C53.413 22.1479 52.6984 23.7015 51.7662 24.9711C50.834 26.2406 49.711 27.2083 48.397 27.8741C47.0831 28.54 45.605 28.8729 43.9626 28.8729C42.2403 28.8729 40.7133 28.5355 39.3816 27.8608C38.0588 27.1861 36.989 26.2628 36.1723 25.0909C35.3555 23.919 34.8539 22.5785 34.6675 21.0692H39.5281C39.7767 22.1523 40.2827 23.0135 41.0462 23.6527C41.8186 24.283 42.7907 24.5982 43.9626 24.5982C45.8535 24.5982 47.3095 23.777 48.3305 22.1346C49.3514 20.4922 49.8619 18.2106 49.8619 15.2898H49.6754C49.2404 16.071 48.6767 16.7457 47.9842 17.3139C47.2917 17.8732 46.5061 18.3038 45.6272 18.6056C44.7571 18.9075 43.8338 19.0584 42.8573 19.0584C41.2593 19.0584 39.821 18.6767 38.5426 17.9132C37.2731 17.1497 36.2655 16.1021 35.5197 14.7704C34.7829 13.4387 34.41 11.9162 34.4011 10.2028C34.4011 8.4272 34.8095 6.83363 35.6263 5.42205C36.4519 4.0016 37.6016 2.88299 39.0753 2.06623C40.549 1.24059 42.2713 0.836646 44.2422 0.854402ZM44.2555 4.84943C43.2967 4.84943 42.4311 5.08469 41.6588 5.55522C40.8953 6.01687 40.2916 6.64719 39.8477 7.4462C39.4127 8.23633 39.1952 9.11967 39.1952 10.0962C39.204 11.0639 39.4215 11.9428 39.8477 12.733C40.2827 13.5231 40.8731 14.149 41.6188 14.6106C42.3734 15.0723 43.2346 15.3031 44.2023 15.3031C44.9214 15.3031 45.5916 15.1655 46.2131 14.8903C46.8345 14.6151 47.3761 14.2333 47.8377 13.745C48.3083 13.2479 48.6723 12.6841 48.9297 12.0538C49.196 11.4235 49.3248 10.7576 49.3159 10.0563C49.3159 9.12411 49.0939 8.26296 48.6501 7.47283C48.215 6.68271 47.6158 6.04794 46.8523 5.56854C46.0977 5.08913 45.2321 4.84943 44.2555 4.84943ZM59.1763 28.793C58.3684 28.793 57.6759 28.5089 57.0989 27.9407C56.5218 27.3725 56.2377 26.68 56.2466 25.8633C56.2377 25.0643 56.5218 24.3807 57.0989 23.8125C57.6759 23.2443 58.3684 22.9602 59.1763 22.9602C59.9575 22.9602 60.6367 23.2443 61.2138 23.8125C61.7997 24.3807 62.0971 25.0643 62.106 25.8633C62.0971 26.4048 61.9551 26.8975 61.6798 27.3414C61.4135 27.7853 61.0584 28.1404 60.6145 28.4068C60.1795 28.6642 59.7001 28.793 59.1763 28.793ZM74.2202 0.854402C75.5253 0.863281 76.7948 1.0941 78.0288 1.54688C79.2717 1.99077 80.3903 2.71875 81.3847 3.73082C82.379 4.73402 83.1691 6.07901 83.755 7.7658C84.341 9.45259 84.6339 11.5389 84.6339 14.0247C84.6428 16.3684 84.3942 18.4636 83.8882 20.3102C83.391 22.1479 82.6764 23.7015 81.7442 24.9711C80.812 26.2406 79.689 27.2083 78.3751 27.8741C77.0611 28.54 75.583 28.8729 73.9406 28.8729C72.2183 28.8729 70.6913 28.5355 69.3596 27.8608C68.0368 27.1861 66.967 26.2628 66.1503 25.0909C65.3335 23.919 64.8319 22.5785 64.6455 21.0692H69.5061C69.7547 22.1523 70.2607 23.0135 71.0242 23.6527C71.7966 24.283 72.7687 24.5982 73.9406 24.5982C75.8316 24.5982 77.2875 23.777 78.3085 22.1346C79.3294 20.4922 79.8399 18.2106 79.8399 15.2898H79.6535C79.2185 16.071 78.6547 16.7457 77.9622 17.3139C77.2698 17.8732 76.4841 18.3038 75.6052 18.6056C74.7352 18.9075 73.8119 19.0584 72.8353 19.0584C71.2373 19.0584 69.7991 18.6767 68.5207 17.9132C67.2511 17.1497 66.2435 16.1021 65.4978 14.7704C64.7609 13.4387 64.388 11.9162 64.3792 10.2028C64.3792 8.4272 64.7875 6.83363 65.6043 5.42205C66.4299 4.0016 67.5796 2.88299 69.0533 2.06623C70.5271 1.24059 72.2494 0.836646 74.2202 0.854402ZM74.2336 4.84943C73.2747 4.84943 72.4092 5.08469 71.6368 5.55522C70.8733 6.01687 70.2696 6.64719 69.8257 7.4462C69.3907 8.23633 69.1732 9.11967 69.1732 10.0962C69.1821 11.0639 69.3996 11.9428 69.8257 12.733C70.2607 13.5231 70.8511 14.149 71.5968 14.6106C72.3515 15.0723 73.2126 15.3031 74.1803 15.3031C74.8994 15.3031 75.5697 15.1655 76.1911 14.8903C76.8126 14.6151 77.3541 14.2333 77.8158 13.745C78.2863 13.2479 78.6503 12.6841 78.9077 12.0538C79.1741 11.4235 79.3028 10.7576 79.2939 10.0563C79.2939 9.12411 79.072 8.26296 78.6281 7.47283C78.1931 6.68271 77.5938 6.04794 76.8303 5.56854C76.0757 5.08913 75.2101 4.84943 74.2336 4.84943ZM96.6616 0.854402C97.9667 0.863281 99.2362 1.0941 100.47 1.54688C101.713 1.99077 102.832 2.71875 103.826 3.73082C104.82 4.73402 105.611 6.07901 106.196 7.7658C106.782 9.45259 107.075 11.5389 107.075 14.0247C107.084 16.3684 106.836 18.4636 106.33 20.3102C105.832 22.1479 105.118 23.7015 104.186 24.9711C103.253 26.2406 102.13 27.2083 100.816 27.8741C99.5026 28.54 98.0244 28.8729 96.382 28.8729C94.6597 28.8729 93.1327 28.5355 91.801 27.8608C90.4782 27.1861 89.4084 26.2628 88.5917 25.0909C87.7749 23.919 87.2733 22.5785 87.0869 21.0692H91.9475C92.1961 22.1523 92.7021 23.0135 93.4656 23.6527C94.238 24.283 95.2101 24.5982 96.382 24.5982C98.273 24.5982 99.7289 23.777 100.75 22.1346C101.771 20.4922 102.281 18.2106 102.281 15.2898H102.095C101.66 16.071 101.096 16.7457 100.404 17.3139C99.7112 17.8732 98.9255 18.3038 98.0466 18.6056C97.1766 18.9075 96.2533 19.0584 95.2767 19.0584C93.6787 19.0584 92.2405 18.6767 90.9621 17.9132C89.6925 17.1497 88.6849 16.1021 87.9392 14.7704C87.2023 13.4387 86.8294 11.9162 86.8206 10.2028C86.8206 8.4272 87.2289 6.83363 88.0457 5.42205C88.8713 4.0016 90.021 2.88299 91.4947 2.06623C92.9685 1.24059 94.6908 0.836646 96.6616 0.854402ZM96.675 4.84943C95.7162 4.84943 94.8506 5.08469 94.0782 5.55522C93.3147 6.01687 92.711 6.64719 92.2671 7.4462C91.8321 8.23633 91.6146 9.11967 91.6146 10.0962C91.6235 11.0639 91.841 11.9428 92.2671 12.733C92.7021 13.5231 93.2925 14.149 94.0382 14.6106C94.7929 15.0723 95.654 15.3031 96.6217 15.3031C97.3408 15.3031 98.0111 15.1655 98.6325 14.8903C99.254 14.6151 99.7955 14.2333 100.257 13.745C100.728 13.2479 101.092 12.6841 101.349 12.0538C101.615 11.4235 101.744 10.7576 101.735 10.0563C101.735 9.12411 101.513 8.26296 101.069 7.47283C100.634 6.68271 100.035 6.04794 99.2717 5.56854C98.5171 5.08913 97.6515 4.84943 96.675 4.84943Z" fill="url(&quot;#paint0_linear_1238_1028&quot;)"></path>
<defs>
<linearGradient id="paint0_linear_1238_1028" x1="21.7498" y1="6.50001" x2="185.916" y2="34.8333" gradientUnits="userSpaceOnUse">
<stop stop-color="#FFCF23"></stop>
<stop offset="1" stop-color="#FF8D3A" stop-opacity="0.37"></stop>
</linearGradient>
<linearGradient id="paint0_linear_1238_1028" x1="21.7498" y1="6.50001" x2="185.916" y2="34.8333" gradientUnits="userSpaceOnUse">
<stop stop-color="#FFCF23"></stop>
<stop offset="1" stop-color="#FF8D3A" stop-opacity="0.37"></stop>
</linearGradient></defs>
</svg>