<svg xmlns:xlink="http://www.w3.org/1999/xlink" xmlns="http://www.w3.org/2000/svg" width="18" height="18" viewBox="0 0 18 18" fill="none" preserveAspectRatio="xMidYMid meet" aria-hidden="true" role="img">
<path d="M2.45065 17.1255C2.82991 17.2223 3.22803 17.2159 3.60396 17.1073C3.60414 17.1073 3.60432 17.1072 3.6045 17.1072L5.73509 16.5096C6.76312 16.9646 7.87499 17.1998 8.99972 17.2H9.00517C9.25073 17.2 9.51128 17.2 9.78875 17.161C11.7096 16.9621 13.5 16.0968 14.8495 14.7149C16.1999 13.3322 17.0233 11.5202 17.1766 9.59336L17.1766 9.59265C17.2621 8.46751 17.1126 7.3368 16.7376 6.27252C16.3628 5.20826 15.7706 4.23374 14.9989 3.41085C14.2307 2.58837 13.3021 1.93224 12.2702 1.48319C11.2383 1.03404 10.1253 0.80158 9.00001 0.8H8.99973L8.99504 0.8C8.80646 0.799999 8.60612 0.799997 8.40418 0.820841C6.47874 0.97462 4.66813 1.79815 3.28652 3.14844C1.90434 4.49929 1.03911 6.29176 0.840838 8.21449L0.84083 8.21449L0.840672 8.21617C0.709792 9.59956 0.934227 10.9931 1.4923 12.2649L0.887695 14.3841C0.887644 14.3843 0.887593 14.3845 0.887542 14.3846C0.777446 14.7633 0.771051 15.1647 0.869175 15.5468L0.869178 15.5468C0.967344 15.9289 1.16651 16.2778 1.44574 16.5566L1.44634 16.5572C1.72457 16.8326 2.07131 17.0288 2.45065 17.1255ZM2.45065 17.1255L2.49995 16.9323L2.45069 17.1255C2.45068 17.1255 2.45067 17.1255 2.45065 17.1255ZM5.78844 14.0501C5.66082 14.05 5.53376 14.0677 5.41097 14.1028L5.38744 14.1095L5.36623 14.1217L2.86504 15.5595L8.99977 14.8001C8.11785 14.7997 7.24795 14.5956 6.45774 14.2038M5.78844 14.0501L5.7883 14.2501V14.0501H5.78844ZM5.78844 14.0501H5.8258H5.82779V14.0501C6.04675 14.0523 6.26229 14.1049 6.45774 14.2038M6.45774 14.2038C6.45749 14.2037 6.45723 14.2035 6.45698 14.2034L6.36811 14.3826L6.45854 14.2042C6.45827 14.2041 6.45801 14.2039 6.45774 14.2038ZM9.55577 14.7735C9.3686 14.7912 9.18335 14.8001 8.99986 14.8001L3.75145 12.2101H3.95145V12.21L3.95146 12.1751L3.95144 12.1731C3.94926 11.9538 3.89656 11.7379 3.79741 11.5422L3.74506 11.4389C3.30685 10.5062 3.1279 9.47179 3.22816 8.4446C3.36437 7.08305 3.97528 5.81284 4.95374 4.85657C5.93229 3.90029 7.21616 3.31894 8.58012 3.21447L8.58012 3.21454L8.5854 3.21399C8.71835 3.20025 8.85302 3.20008 8.99969 3.20008H8.99973C10.4895 3.19976 11.9223 3.77315 13.0008 4.80125L13.0008 4.80126C14.0794 5.82928 14.7209 7.23321 14.7923 8.72191C14.8638 10.2105 14.3597 11.6695 13.3846 12.7962C12.4096 13.9229 11.0386 14.6309 9.55577 14.7735Z" fill="#FFFFFF" stroke="#FFFFFF" stroke-width="0.4px"></path>
</svg>