<svg xmlns:xlink="http://www.w3.org/1999/xlink" xmlns="http://www.w3.org/2000/svg" width="19" height="26" viewBox="0 0 19 26" fill="none" preserveAspectRatio="xMidYMid meet" aria-hidden="true" role="img">
<path d="M6.24074 1V3.37037M6.24074 22.3333V24.7037M10.9815 1V3.37037M10.9815 22.3333V24.7037M3.87037 3.37037H11.5741C14.1923 3.37037 16.3148 5.49287 16.3148 8.11111C16.3148 10.7293 14.1923 12.8519 11.5741 12.8519H3.87037H12.7593C15.3775 12.8519 17.5 14.9744 17.5 17.5926C17.5 20.2108 15.3775 22.3333 12.7593 22.3333H3.87037M3.87037 3.37037H1.5M3.87037 3.37037V22.3333M3.87037 22.3333H1.5" stroke="url(&quot;#paint0_linear_1226_1824&quot;)" stroke-width="1.5px" stroke-linecap="round" stroke-linejoin="round" fill="none"></path>
<defs>
<linearGradient id="paint0_linear_1226_1824" x1="15.4995" y1="8.99939" x2="4.99988" y2="16.9998" gradientUnits="userSpaceOnUse">
<stop stop-color="#FFCF23"></stop>
<stop offset="1" stop-color="#AD8B3A"></stop>
</linearGradient>
<linearGradient id="paint0_linear_1226_1824" x1="15.4995" y1="8.99939" x2="4.99988" y2="16.9998" gradientUnits="userSpaceOnUse">
<stop stop-color="#FFCF23"></stop>
<stop offset="1" stop-color="#AD8B3A"></stop>
</linearGradient></defs>
</svg>