<svg xmlns:xlink="http://www.w3.org/1999/xlink" xmlns="http://www.w3.org/2000/svg" width="28" height="21" viewBox="0 0 28 21" fill="none" preserveAspectRatio="xMidYMid meet" aria-hidden="true" role="img">
<path d="M11.2398 20.6898L4.61231e-07 10.5517L11.2398 0.413666C11.3413 0.294052 11.4702 0.195404 11.6179 0.124403C11.7656 0.0534009 11.9286 0.0117023 12.0958 0.00212918C12.263 -0.00744391 12.4306 0.0153327 12.5871 0.0689163C12.7437 0.1225 12.8856 0.20564 13.0032 0.312708C13.1208 0.419775 13.2114 0.548272 13.2689 0.689497C13.3264 0.830722 13.3494 0.981379 13.3363 1.13127C13.3233 1.28116 13.2745 1.42678 13.1932 1.55828C13.112 1.68978 13.0002 1.80408 12.8655 1.89345L4.45614 9.50225L26.8304 9.50225C27.1406 9.50225 27.4381 9.61282 27.6574 9.80964C27.8768 10.0065 28 10.2734 28 10.5517C28 10.8301 27.8768 11.097 27.6574 11.2938C27.4381 11.4907 27.1406 11.6012 26.8304 11.6012L4.45614 11.6012L12.8655 19.21C13.0842 19.4077 13.2064 19.6751 13.2053 19.9536C13.2042 20.2321 13.0799 20.4988 12.8597 20.6951C12.6394 20.8913 12.3413 21.001 12.031 21C11.7206 20.999 11.4234 20.8874 11.2047 20.6898L11.2398 20.6898Z" fill="#FFFFFF"></path>
</svg>