<svg xmlns:xlink="http://www.w3.org/1999/xlink" xmlns="http://www.w3.org/2000/svg" width="24" height="22" viewBox="0 0 24 22" fill="none" preserveAspectRatio="xMidYMid meet" aria-hidden="true" role="img">
<path d="M15.85 10.35H14.75L13.1 13.65L10.9 7.05L9.25 10.35H8.15M11.9925 3.3494C9.79318 0.77824 6.12572 0.0866068 3.37016 2.44101C0.614608 4.79542 0.226665 8.73187 2.39062 11.5164C4.0251 13.6197 8.66842 17.842 10.8428 19.7824C11.2425 20.1391 11.4424 20.3174 11.6764 20.3876C11.8796 20.4486 12.1054 20.4486 12.3085 20.3876C12.5426 20.3174 12.7424 20.1391 13.1421 19.7824C15.3165 17.842 19.9598 13.6197 21.5943 11.5164C23.7583 8.73187 23.4177 4.77066 20.6148 2.44101C17.8118 0.111373 14.1918 0.77824 11.9925 3.3494Z" stroke="url(&quot;#paint0_linear_1226_2029&quot;)" stroke-width="1.5px" stroke-linecap="round" stroke-linejoin="round" fill="none"></path>
<defs>
<linearGradient id="paint0_linear_1226_2029" x1="19.0001" y1="6.50012" x2="6.50045" y2="14.5008" gradientUnits="userSpaceOnUse">
<stop stop-color="#FFCF23"></stop>
<stop offset="1" stop-color="#AD8B3A"></stop>
</linearGradient>
<linearGradient id="paint0_linear_1226_2029" x1="19.0001" y1="6.50012" x2="6.50045" y2="14.5008" gradientUnits="userSpaceOnUse">
<stop stop-color="#FFCF23"></stop>
<stop offset="1" stop-color="#AD8B3A"></stop>
</linearGradient></defs>
</svg>