<svg xmlns:xlink="http://www.w3.org/1999/xlink" xmlns="http://www.w3.org/2000/svg" width="44" height="40" viewBox="0 0 44 40" fill="none" preserveAspectRatio="xMidYMid meet" aria-hidden="true" role="img">
<path d="M6.39327 39.5977H36.9383C41.7855 39.5977 44.9208 34.1332 42.4937 29.8897L27.2212 3.18263C24.7939 -1.05243 18.538 -1.06931 16.1108 3.18263L0.838301 29.8897C-1.58063 34.1164 1.53059 39.5977 6.39372 39.5977H6.39327ZM21.6658 34.9671C19.6222 34.9671 17.9123 33.2411 17.9123 31.1783C17.9123 29.107 19.6222 27.3894 21.6658 27.3894C23.7093 27.3894 25.4193 29.107 25.4193 31.1783C25.4193 33.2411 23.7093 34.9671 21.6658 34.9671ZM21.7825 7.81366C24.1606 7.88101 26.0448 10.0112 25.853 12.4025L25.0856 21.6978C24.9772 23.0112 23.8929 24.0216 22.5925 24.0216H20.7399C19.4387 24.0216 18.3552 23.0112 18.2468 21.6978L17.4794 12.4025C17.27 9.9187 19.3219 7.7463 21.7825 7.81366Z" fill="#FFFFFF" fill-opacity="0.24"></path>
</svg>