<svg xmlns:xlink="http://www.w3.org/1999/xlink" xmlns="http://www.w3.org/2000/svg" width="64" height="50" viewBox="0 0 42 41" fill="none" preserveAspectRatio="xMidYMid meet" aria-hidden="true" role="img">
<path d="M21.0833 0C9.82577 0 0.666626 9.15914 0.666626 20.4167C0.666626 31.6742 9.82577 40.8333 21.0833 40.8333C32.3408 40.8333 41.5 31.6742 41.5 20.4167C41.5 9.15914 32.3408 0 21.0833 0ZM21.0833 38.5648C11.0735 38.5648 2.93514 30.4208 2.93514 20.4167C2.93514 10.4125 11.0735 2.26852 21.0833 2.26852C31.0931 2.26852 39.2314 10.4125 39.2314 20.4167C39.2314 30.4208 31.0931 38.5648 21.0833 38.5648Z" fill="url(&quot;#paint0_linear_1238_2936&quot;)" fill-opacity="0.3"></path>
<path d="M21.6505 9.70345C21.0267 9.70345 20.5163 10.2139 20.5163 10.8377V19.5942C20.5163 19.9459 20.3915 20.2919 20.1646 20.564L13.4044 28.7703C13.0075 29.2524 13.0754 29.967 13.5574 30.3697C13.7673 30.5397 14.0227 30.6248 14.2778 30.6248C14.6068 30.6248 14.93 30.483 15.1512 30.2107L21.917 22.01C22.4784 21.3295 22.7847 20.4731 22.7847 19.594V10.8375C22.7847 10.2137 22.2742 9.70325 21.6504 9.70325L21.6505 9.70345Z" fill="url(&quot;#paint1_linear_1238_2936&quot;)" fill-opacity="0.3"></path>
<defs>
<linearGradient id="paint0_linear_1238_2936" x1="21.0833" y1="7.572e-07" x2="71.8981" y2="101.176" gradientUnits="userSpaceOnUse">
<stop stop-color="white"></stop>
<stop offset="1" stop-color="white" stop-opacity="0"></stop>
</linearGradient>
<linearGradient id="paint1_linear_1238_2936" x1="17.9654" y1="9.70325" x2="50.3024" y2="39.3656" gradientUnits="userSpaceOnUse">
<stop stop-color="white"></stop>
<stop offset="1" stop-color="white" stop-opacity="0"></stop>
</linearGradient>
<linearGradient id="paint0_linear_1238_2936" x1="21.0833" y1="7.572e-07" x2="71.8981" y2="101.176" gradientUnits="userSpaceOnUse">
<stop stop-color="white"></stop>
<stop offset="1" stop-color="white" stop-opacity="0"></stop>
</linearGradient><linearGradient id="paint1_linear_1238_2936" x1="17.9654" y1="9.70325" x2="50.3024" y2="39.3656" gradientUnits="userSpaceOnUse">
<stop stop-color="white"></stop>
<stop offset="1" stop-color="white" stop-opacity="0"></stop>
</linearGradient></defs>
</svg>