<svg xmlns:xlink="http://www.w3.org/1999/xlink" xmlns="http://www.w3.org/2000/svg" width="20" height="20" viewBox="0 0 20 20" fill="none" preserveAspectRatio="xMidYMid meet" aria-hidden="true" role="img">
<path d="M6.99945 6.79199L12.9995 12.792M12.9995 6.79199L6.99945 12.792M5.79945 18.792H14.1995C15.8796 18.792 16.7197 18.792 17.3614 18.465C17.9259 18.1774 18.3848 17.7184 18.6725 17.154C18.9995 16.5122 18.9995 15.6722 18.9995 13.992V5.59199C18.9995 3.91183 18.9995 3.07176 18.6725 2.43002C18.3848 1.86553 17.9259 1.40659 17.3614 1.11897C16.7197 0.791992 15.8796 0.791992 14.1995 0.791992H5.79945C4.11929 0.791992 3.27921 0.791992 2.63748 1.11897C2.07299 1.40659 1.61405 1.86553 1.32643 2.43002C0.999451 3.07176 0.999451 3.91183 0.999451 5.59199V13.992C0.999451 15.6721 0.999451 16.5122 1.32643 17.154C1.61405 17.7184 2.07299 18.1774 2.63748 18.465C3.27921 18.792 4.11929 18.792 5.79945 18.792Z" stroke="#FFFFFF" stroke-width="1.5px" stroke-linecap="round" stroke-linejoin="round" fill="none"></path>
</svg>