<svg xmlns:xlink="http://www.w3.org/1999/xlink" xmlns="http://www.w3.org/2000/svg" width="25" height="25" viewBox="0 0 25 25" fill="none" preserveAspectRatio="xMidYMid meet" aria-hidden="true" role="img">
<path d="M12.5 0C9.18479 0 6.00542 1.31698 3.66104 3.66104C1.31687 6.00521 0 9.18479 0 12.5C0 15.8152 1.31698 18.9946 3.66104 21.339C6.00521 23.6831 9.18479 25 12.5 25C15.8152 25 18.9946 23.683 21.339 21.339C23.6831 18.9948 25 15.8152 25 12.5C25 9.18479 23.683 6.00542 21.339 3.66104C18.9948 1.31687 15.8152 0 12.5 0ZM12.5 5.72917C13.467 5.72917 14.3943 6.11329 15.0779 6.79704C15.7617 7.48071 16.1458 8.40804 16.1458 9.37496C16.1458 10.3419 15.7617 11.2692 15.0779 11.9529C14.3942 12.6366 13.4669 13.0208 12.5 13.0208C11.5331 13.0208 10.6057 12.6366 9.92208 11.9529C9.23833 11.2692 8.85421 10.3419 8.85421 9.37496C8.85421 8.40804 9.23833 7.48067 9.92208 6.79704C10.6058 6.11329 11.5331 5.72917 12.5 5.72917ZM18.2812 18.4792C16.7279 19.9781 14.6533 20.8158 12.4948 20.8158C10.3363 20.8158 8.26167 19.9782 6.70833 18.4792C6.62956 18.3975 6.57894 18.2928 6.56388 18.1803C6.54891 18.0679 6.57031 17.9536 6.625 17.8542C7.5 16.25 9.79167 15.1042 12.5 15.1042C15.2083 15.1042 17.5 16.25 18.375 17.8542C18.4284 17.9547 18.4481 18.0696 18.4312 18.1821C18.4143 18.2946 18.3617 18.3988 18.2812 18.4792Z" fill="#0000EE" fill-opacity="0.51"></path>
</svg>