<svg xmlns:xlink="http://www.w3.org/1999/xlink" xmlns="http://www.w3.org/2000/svg" width="217" height="20" viewBox="0 0 217 20" fill="none" preserveAspectRatio="xMidYMid meet" aria-hidden="true" role="img">
<path d="M5.74058 12.3055C6.0245 12.8461 6.59141 13.2148 7.24444 13.2148H9.18446C10.1889 13.2148 11.0032 12.4006 11.0032 11.3961C11.0032 10.3916 10.1889 9.57731 9.18446 9.57731H7.36569C6.36121 9.57731 5.54692 8.76302 5.54692 7.75854C5.54692 6.75406 6.36121 5.93977 7.36569 5.93977H9.30571C9.95874 5.93977 10.5256 6.30852 10.8096 6.84916M8.27507 4.5757V5.93977M8.27507 13.2148V14.5789M15.5501 10.032C15.5501 14.4957 10.6813 17.7421 8.90981 18.7756C8.70849 18.8931 8.60782 18.9518 8.46575 18.9823C8.3555 19.0059 8.19465 19.0059 8.08439 18.9823C7.94233 18.9518 7.84166 18.8931 7.64033 18.7756C5.86881 17.7421 1 14.4957 1 10.032V5.68297C1 4.9559 1 4.59237 1.11891 4.27988C1.22396 4.00382 1.39466 3.7575 1.61625 3.56222C1.86709 3.34115 2.20748 3.21351 2.88825 2.95822L7.76418 1.12975C7.95324 1.05885 8.04777 1.0234 8.14502 1.00935C8.23127 0.996884 8.31887 0.996884 8.40513 1.00935C8.50238 1.0234 8.59691 1.05885 8.78596 1.12974L13.6619 2.95822C14.3427 3.21351 14.6831 3.34115 14.9339 3.56222C15.1555 3.7575 15.3262 4.00382 15.4312 4.27988C15.5501 4.59237 15.5501 4.9559 15.5501 5.68297V10.032Z" stroke="url(&quot;#paint0_linear_1256_25919&quot;)" stroke-width="1.25px" stroke-linecap="round" stroke-linejoin="round" fill="none"></path>
<path d="M29.299 17.6364V1.27273H30.3473V17.6364H29.299ZM32.5781 6.34801C32.5099 5.7429 32.2287 5.27415 31.7344 4.94176C31.2401 4.60511 30.6179 4.43679 29.8679 4.43679C29.331 4.43679 28.8665 4.52202 28.4744 4.69247C28.0824 4.85866 27.7777 5.08878 27.5604 5.38281C27.3473 5.67258 27.2408 6.00284 27.2408 6.37358C27.2408 6.68466 27.3132 6.95312 27.4581 7.17898C27.6072 7.40483 27.8011 7.59446 28.0398 7.74787C28.2827 7.89702 28.5426 8.02273 28.8196 8.125C29.0966 8.22301 29.3629 8.30398 29.6186 8.3679L30.897 8.70028C31.3146 8.80256 31.7429 8.94105 32.1818 9.11577C32.6207 9.29048 33.0277 9.5206 33.4027 9.80611C33.7777 10.0916 34.0803 10.4453 34.3104 10.8672C34.5447 11.2891 34.6619 11.794 34.6619 12.3821C34.6619 13.1236 34.4702 13.782 34.0866 14.3572C33.7074 14.9325 33.1555 15.3864 32.4311 15.7188C31.7109 16.0511 30.8395 16.2173 29.8168 16.2173C28.8366 16.2173 27.9886 16.0618 27.2727 15.7507C26.5568 15.4396 25.9964 14.9986 25.5916 14.4276C25.1868 13.8523 24.9631 13.1705 24.9205 12.3821H26.902C26.9403 12.8551 27.0938 13.2493 27.3622 13.5646C27.6349 13.8757 27.9822 14.108 28.4041 14.2614C28.8303 14.4105 29.2969 14.4851 29.804 14.4851C30.3622 14.4851 30.8587 14.3977 31.2933 14.223C31.7322 14.044 32.0774 13.7969 32.3288 13.4815C32.5803 13.1619 32.706 12.7891 32.706 12.3629C32.706 11.9751 32.5952 11.6577 32.3736 11.4105C32.1563 11.1634 31.8601 10.9588 31.4851 10.7969C31.1143 10.6349 30.6946 10.4922 30.2259 10.3686L28.679 9.94673C27.6307 9.66122 26.7997 9.24148 26.1861 8.6875C25.5767 8.13352 25.272 7.40057 25.272 6.48864C25.272 5.73437 25.4766 5.07599 25.8857 4.51349C26.2947 3.95099 26.8487 3.5142 27.5476 3.20312C28.2464 2.88778 29.0348 2.73011 29.9126 2.73011C30.799 2.73011 31.581 2.88565 32.2585 3.19673C32.9403 3.50781 33.4773 3.93608 33.8693 4.48153C34.2614 5.02273 34.4659 5.64489 34.483 6.34801H32.5781ZM36.5684 13.4432V11.8452L42.2253 2.90909H43.4846V5.26136H42.6855L38.6394 11.6662V11.7685H46.3929V13.4432H36.5684ZM42.775 16V12.9574L42.7878 12.2287V2.90909H44.6607V16H42.775ZM52.9735 2.73011C53.5574 2.73437 54.1326 2.84091 54.6994 3.04972C55.2662 3.25852 55.7775 3.59943 56.2335 4.07244C56.6937 4.54545 57.0602 5.18466 57.3329 5.99006C57.6099 6.79119 57.7505 7.78835 57.7548 8.98153C57.7548 10.1278 57.6397 11.1484 57.4096 12.0433C57.1795 12.9339 56.8493 13.6861 56.4189 14.2997C55.9927 14.9134 55.475 15.38 54.8656 15.6996C54.2562 16.0192 53.5701 16.179 52.8074 16.179C52.0275 16.179 51.335 16.0256 50.7299 15.7188C50.1248 15.4119 49.6326 14.9879 49.2534 14.4467C48.8741 13.9013 48.6376 13.2749 48.5439 12.5675H50.4934C50.6213 13.13 50.8812 13.5859 51.2733 13.9354C51.6696 14.2805 52.1809 14.4531 52.8074 14.4531C53.7662 14.4531 54.514 14.0355 55.051 13.2003C55.5879 12.3608 55.8585 11.1889 55.8627 9.68466H55.7605C55.5389 10.0511 55.2619 10.3665 54.9295 10.6307C54.6014 10.8949 54.2328 11.0994 53.8237 11.2443C53.4146 11.3892 52.9778 11.4616 52.5133 11.4616C51.7591 11.4616 51.073 11.2763 50.4551 10.9055C49.8372 10.5348 49.345 10.0256 48.9785 9.37784C48.612 8.73011 48.4288 7.99077 48.4288 7.1598C48.4288 6.3331 48.6163 5.5831 48.9913 4.9098C49.3706 4.23651 49.899 3.70384 50.5765 3.31179C51.2583 2.91548 52.0574 2.72159 52.9735 2.73011ZM52.9799 4.39205C52.4814 4.39205 52.0318 4.51562 51.6312 4.76278C51.2349 5.00568 50.9217 5.33594 50.6916 5.75355C50.4615 6.1669 50.3464 6.62713 50.3464 7.13423C50.3464 7.64134 50.4572 8.10156 50.6788 8.51491C50.9047 8.92401 51.2115 9.25 51.5993 9.4929C51.9913 9.73153 52.4387 9.85085 52.9416 9.85085C53.3166 9.85085 53.666 9.77841 53.9899 9.63352C54.3137 9.48864 54.5971 9.28835 54.84 9.03267C55.0829 8.77273 55.2725 8.47869 55.4089 8.15057C55.5453 7.82244 55.6135 7.47727 55.6135 7.11506C55.6135 6.63352 55.4984 6.18608 55.2683 5.77273C55.0424 5.35937 54.7314 5.02699 54.3351 4.77557C53.9387 4.51989 53.487 4.39205 52.9799 4.39205ZM60.8741 16.1214C60.5247 16.1214 60.2243 15.9979 59.9728 15.7507C59.7214 15.4993 59.5957 15.1967 59.5957 14.843C59.5957 14.4936 59.7214 14.1953 59.9728 13.9482C60.2243 13.6967 60.5247 13.571 60.8741 13.571C61.2235 13.571 61.524 13.6967 61.7754 13.9482C62.0268 14.1953 62.1525 14.4936 62.1525 14.843C62.1525 15.0774 62.0929 15.2926 61.9735 15.4886C61.8585 15.6804 61.7051 15.8338 61.5133 15.9489C61.3216 16.0639 61.1085 16.1214 60.8741 16.1214ZM68.8817 2.73011C69.4656 2.73437 70.0408 2.84091 70.6076 3.04972C71.1744 3.25852 71.6857 3.59943 72.1417 4.07244C72.6019 4.54545 72.9684 5.18466 73.2411 5.99006C73.5181 6.79119 73.6587 7.78835 73.663 8.98153C73.663 10.1278 73.5479 11.1484 73.3178 12.0433C73.0877 12.9339 72.7575 13.6861 72.3271 14.2997C71.9009 14.9134 71.3832 15.38 70.7738 15.6996C70.1644 16.0192 69.4783 16.179 68.7156 16.179C67.9357 16.179 67.2433 16.0256 66.6381 15.7188C66.033 15.4119 65.5408 14.9879 65.1616 14.4467C64.7823 13.9013 64.5458 13.2749 64.4521 12.5675H66.4016C66.5295 13.13 66.7894 13.5859 67.1815 13.9354C67.5778 14.2805 68.0891 14.4531 68.7156 14.4531C69.6744 14.4531 70.4222 14.0355 70.9592 13.2003C71.4961 12.3608 71.7667 11.1889 71.771 9.68466H71.6687C71.4471 10.0511 71.1701 10.3665 70.8377 10.6307C70.5096 10.8949 70.141 11.0994 69.7319 11.2443C69.3228 11.3892 68.886 11.4616 68.4215 11.4616C67.6673 11.4616 66.9812 11.2763 66.3633 10.9055C65.7454 10.5348 65.2532 10.0256 64.8867 9.37784C64.5202 8.73011 64.337 7.99077 64.337 7.1598C64.337 6.3331 64.5245 5.5831 64.8995 4.9098C65.2788 4.23651 65.8072 3.70384 66.4847 3.31179C67.1665 2.91548 67.9656 2.72159 68.8817 2.73011ZM68.8881 4.39205C68.3896 4.39205 67.94 4.51562 67.5394 4.76278C67.1431 5.00568 66.8299 5.33594 66.5998 5.75355C66.3697 6.1669 66.2546 6.62713 66.2546 7.13423C66.2546 7.64134 66.3654 8.10156 66.587 8.51491C66.8129 8.92401 67.1197 9.25 67.5075 9.4929C67.8995 9.73153 68.3469 9.85085 68.8498 9.85085C69.2248 9.85085 69.5742 9.77841 69.8981 9.63352C70.2219 9.48864 70.5053 9.28835 70.7482 9.03267C70.9911 8.77273 71.1808 8.47869 71.3171 8.15057C71.4535 7.82244 71.5217 7.47727 71.5217 7.11506C71.5217 6.63352 71.4066 6.18608 71.1765 5.77273C70.9506 5.35937 70.6396 5.02699 70.2433 4.77557C69.8469 4.51989 69.3952 4.39205 68.8881 4.39205ZM80.3251 2.73011C80.9089 2.73437 81.4842 2.84091 82.051 3.04972C82.6177 3.25852 83.1291 3.59943 83.5851 4.07244C84.0453 4.54545 84.4118 5.18466 84.6845 5.99006C84.9615 6.79119 85.1021 7.78835 85.1064 8.98153C85.1064 10.1278 84.9913 11.1484 84.7612 12.0433C84.5311 12.9339 84.2008 13.6861 83.7704 14.2997C83.3443 14.9134 82.8265 15.38 82.2172 15.6996C81.6078 16.0192 80.9217 16.179 80.1589 16.179C79.3791 16.179 78.6866 16.0256 78.0815 15.7188C77.4764 15.4119 76.9842 14.9879 76.6049 14.4467C76.2257 13.9013 75.9892 13.2749 75.8954 12.5675H77.845C77.9728 13.13 78.2328 13.5859 78.6248 13.9354C79.0211 14.2805 79.5325 14.4531 80.1589 14.4531C81.1177 14.4531 81.8656 14.0355 82.4025 13.2003C82.9395 12.3608 83.21 11.1889 83.2143 9.68466H83.112C82.8904 10.0511 82.6135 10.3665 82.2811 10.6307C81.9529 10.8949 81.5843 11.0994 81.1752 11.2443C80.7662 11.3892 80.3294 11.4616 79.8649 11.4616C79.1106 11.4616 78.4245 11.2763 77.8066 10.9055C77.1887 10.5348 76.6966 10.0256 76.3301 9.37784C75.9636 8.73011 75.7804 7.99077 75.7804 7.1598C75.7804 6.3331 75.9679 5.5831 76.3429 4.9098C76.7221 4.23651 77.2505 3.70384 77.9281 3.31179C78.6099 2.91548 79.4089 2.72159 80.3251 2.73011ZM80.3315 4.39205C79.8329 4.39205 79.3833 4.51562 78.9828 4.76278C78.5865 5.00568 78.2733 5.33594 78.0431 5.75355C77.813 6.1669 77.698 6.62713 77.698 7.13423C77.698 7.64134 77.8088 8.10156 78.0304 8.51491C78.2562 8.92401 78.563 9.25 78.9508 9.4929C79.3429 9.73153 79.7903 9.85085 80.2931 9.85085C80.6681 9.85085 81.0176 9.77841 81.3414 9.63352C81.6653 9.48864 81.9487 9.28835 82.1916 9.03267C82.4345 8.77273 82.6241 8.47869 82.7605 8.15057C82.8968 7.82244 82.965 7.47727 82.965 7.11506C82.965 6.63352 82.85 6.18608 82.6199 5.77273C82.394 5.35937 82.0829 5.02699 81.6866 4.77557C81.2903 4.51989 80.8386 4.39205 80.3315 4.39205ZM92.4268 2.29545L88.2081 17.9688H86.5014L90.7202 2.29545H92.4268ZM94.0504 16V6.18182H95.8849V7.77983H96.0064C96.2109 7.23864 96.5455 6.81676 97.0099 6.5142C97.4744 6.20739 98.0305 6.05398 98.6783 6.05398C99.3345 6.05398 99.8842 6.20739 100.327 6.5142C100.775 6.82102 101.105 7.2429 101.318 7.77983H101.42C101.655 7.25568 102.028 6.83807 102.539 6.52699C103.05 6.21165 103.66 6.05398 104.367 6.05398C105.258 6.05398 105.984 6.3331 106.547 6.89134C107.114 7.44957 107.397 8.29119 107.397 9.41619V16H105.486V9.59517C105.486 8.9304 105.305 8.44886 104.942 8.15057C104.58 7.85227 104.148 7.70312 103.645 7.70312C103.023 7.70312 102.539 7.89489 102.194 8.27841C101.849 8.65767 101.676 9.1456 101.676 9.74219V16H99.7713V9.47372C99.7713 8.94105 99.6051 8.51278 99.2727 8.18892C98.9403 7.86506 98.5078 7.70312 97.9751 7.70312C97.6129 7.70312 97.2784 7.79901 96.9716 7.99077C96.669 8.17827 96.424 8.44034 96.2365 8.77699C96.0533 9.11364 95.9616 9.50355 95.9616 9.94673V16H94.0504ZM114.094 16.1982C113.174 16.1982 112.371 15.9872 111.684 15.5653C110.998 15.1435 110.466 14.5533 110.086 13.7947C109.707 13.0362 109.518 12.1499 109.518 11.1357C109.518 10.1172 109.707 9.22656 110.086 8.46378C110.466 7.70099 110.998 7.10866 111.684 6.68679C112.371 6.26491 113.174 6.05398 114.094 6.05398C115.015 6.05398 115.818 6.26491 116.504 6.68679C117.19 7.10866 117.723 7.70099 118.102 8.46378C118.481 9.22656 118.671 10.1172 118.671 11.1357C118.671 12.1499 118.481 13.0362 118.102 13.7947C117.723 14.5533 117.19 15.1435 116.504 15.5653C115.818 15.9872 115.015 16.1982 114.094 16.1982ZM114.101 14.5938C114.697 14.5938 115.192 14.4361 115.584 14.1207C115.976 13.8054 116.265 13.3857 116.453 12.8615C116.645 12.3374 116.741 11.7599 116.741 11.1293C116.741 10.5028 116.645 9.92756 116.453 9.40341C116.265 8.875 115.976 8.45099 115.584 8.13139C115.192 7.81179 114.697 7.65199 114.101 7.65199C113.5 7.65199 113.001 7.81179 112.605 8.13139C112.213 8.45099 111.921 8.875 111.729 9.40341C111.542 9.92756 111.448 10.5028 111.448 11.1293C111.448 11.7599 111.542 12.3374 111.729 12.8615C111.921 13.3857 112.213 13.8054 112.605 14.1207C113.001 14.4361 113.5 14.5938 114.101 14.5938ZM122.716 10.1705V16H120.804V6.18182H122.639V7.77983H122.76C122.986 7.25994 123.34 6.84233 123.821 6.52699C124.307 6.21165 124.919 6.05398 125.656 6.05398C126.325 6.05398 126.911 6.1946 127.414 6.47585C127.917 6.75284 128.306 7.16619 128.583 7.71591C128.86 8.26562 128.999 8.94531 128.999 9.75497V16H127.088V9.98509C127.088 9.27344 126.902 8.71733 126.532 8.31676C126.161 7.91193 125.652 7.70952 125.004 7.70952C124.561 7.70952 124.167 7.8054 123.821 7.99716C123.48 8.18892 123.21 8.47017 123.01 8.84091C122.814 9.20739 122.716 9.65057 122.716 10.1705ZM136.145 6.18182V7.71591H130.782V6.18182H136.145ZM132.221 3.82955H134.132V13.1172C134.132 13.4879 134.187 13.767 134.298 13.9545C134.409 14.1378 134.551 14.2635 134.726 14.3317C134.905 14.3956 135.099 14.4276 135.308 14.4276C135.461 14.4276 135.596 14.4169 135.711 14.3956C135.826 14.3743 135.915 14.3572 135.979 14.3445L136.324 15.9233C136.213 15.9659 136.056 16.0085 135.851 16.0511C135.647 16.098 135.391 16.1236 135.084 16.1278C134.581 16.1364 134.113 16.0469 133.678 15.8594C133.243 15.6719 132.892 15.3821 132.623 14.9901C132.355 14.598 132.221 14.1058 132.221 13.5135V3.82955ZM140.382 10.1705V16H138.47V2.90909H140.356V7.77983H140.477C140.708 7.25142 141.059 6.83168 141.532 6.5206C142.005 6.20952 142.623 6.05398 143.386 6.05398C144.059 6.05398 144.647 6.19247 145.15 6.46946C145.657 6.74645 146.049 7.1598 146.326 7.70952C146.607 8.25497 146.748 8.93679 146.748 9.75497V16H144.837V9.98509C144.837 9.26491 144.651 8.70668 144.281 8.31037C143.91 7.9098 143.394 7.70952 142.734 7.70952C142.282 7.70952 141.877 7.8054 141.519 7.99716C141.166 8.18892 140.887 8.47017 140.682 8.84091C140.482 9.20739 140.382 9.65057 140.382 10.1705ZM158.735 6.18182V7.71591H153.186V6.18182H158.735ZM154.708 16V5.04403C154.708 4.4304 154.842 3.92116 155.11 3.51634C155.379 3.10724 155.735 2.80256 156.178 2.60227C156.621 2.39773 157.103 2.29545 157.623 2.29545C158.006 2.29545 158.334 2.32741 158.607 2.39134C158.88 2.45099 159.082 2.50639 159.214 2.55753L158.767 4.1044C158.677 4.07883 158.562 4.04901 158.422 4.01491C158.281 3.97656 158.11 3.95739 157.91 3.95739C157.446 3.95739 157.113 4.07244 156.913 4.30256C156.717 4.53267 156.619 4.86506 156.619 5.29972V16H154.708ZM164.456 16.1982C163.535 16.1982 162.732 15.9872 162.046 15.5653C161.36 15.1435 160.827 14.5533 160.448 13.7947C160.069 13.0362 159.879 12.1499 159.879 11.1357C159.879 10.1172 160.069 9.22656 160.448 8.46378C160.827 7.70099 161.36 7.10866 162.046 6.68679C162.732 6.26491 163.535 6.05398 164.456 6.05398C165.376 6.05398 166.179 6.26491 166.865 6.68679C167.551 7.10866 168.084 7.70099 168.463 8.46378C168.843 9.22656 169.032 10.1172 169.032 11.1357C169.032 12.1499 168.843 13.0362 168.463 13.7947C168.084 14.5533 167.551 15.1435 166.865 15.5653C166.179 15.9872 165.376 16.1982 164.456 16.1982ZM164.462 14.5938C165.059 14.5938 165.553 14.4361 165.945 14.1207C166.337 13.8054 166.627 13.3857 166.814 12.8615C167.006 12.3374 167.102 11.7599 167.102 11.1293C167.102 10.5028 167.006 9.92756 166.814 9.40341C166.627 8.875 166.337 8.45099 165.945 8.13139C165.553 7.81179 165.059 7.65199 164.462 7.65199C163.861 7.65199 163.363 7.81179 162.966 8.13139C162.574 8.45099 162.282 8.875 162.091 9.40341C161.903 9.92756 161.809 10.5028 161.809 11.1293C161.809 11.7599 161.903 12.3374 162.091 12.8615C162.282 13.3857 162.574 13.8054 162.966 14.1207C163.363 14.4361 163.861 14.5938 164.462 14.5938ZM171.166 16V6.18182H173.013V7.74148H173.115C173.294 7.21307 173.61 6.79758 174.061 6.49503C174.517 6.18821 175.033 6.0348 175.608 6.0348C175.727 6.0348 175.868 6.03906 176.03 6.04759C176.196 6.05611 176.326 6.06676 176.42 6.07955V7.90767C176.343 7.88636 176.207 7.86293 176.011 7.83736C175.815 7.80753 175.619 7.79261 175.423 7.79261C174.971 7.79261 174.568 7.88849 174.215 8.08026C173.865 8.26776 173.588 8.52983 173.384 8.86648C173.179 9.19886 173.077 9.57812 173.077 10.0043V16H171.166ZM181.954 16.1982C180.987 16.1982 180.153 15.9915 179.455 15.5781C178.76 15.1605 178.223 14.5746 177.844 13.8203C177.469 13.0618 177.281 12.1733 177.281 11.1548C177.281 10.1491 177.469 9.26278 177.844 8.49574C178.223 7.72869 178.751 7.12997 179.429 6.69957C180.111 6.26918 180.908 6.05398 181.82 6.05398C182.374 6.05398 182.911 6.1456 183.43 6.32884C183.95 6.51207 184.417 6.79972 184.83 7.19176C185.244 7.58381 185.57 8.09304 185.808 8.71946C186.047 9.34162 186.166 10.098 186.166 10.9886V11.6662H178.362V10.2344H184.293C184.293 9.73153 184.191 9.28622 183.987 8.89844C183.782 8.50639 183.494 8.19744 183.124 7.97159C182.757 7.74574 182.327 7.63281 181.832 7.63281C181.295 7.63281 180.827 7.76491 180.426 8.02912C180.03 8.28906 179.723 8.62997 179.506 9.05185C179.293 9.46946 179.186 9.9233 179.186 10.4134V11.532C179.186 12.1882 179.301 12.7464 179.531 13.2067C179.766 13.6669 180.092 14.0185 180.509 14.2614C180.927 14.5 181.415 14.6193 181.973 14.6193C182.335 14.6193 182.665 14.5682 182.964 14.4659C183.262 14.3594 183.52 14.2017 183.737 13.9929C183.955 13.7841 184.121 13.5263 184.236 13.2195L186.045 13.5455C185.9 14.0781 185.64 14.5447 185.265 14.9453C184.894 15.3416 184.428 15.6506 183.865 15.8722C183.307 16.0895 182.67 16.1982 181.954 16.1982ZM196.405 6.18182L192.844 16H190.799L187.232 6.18182H189.284L191.77 13.7372H191.873L194.353 6.18182H196.405ZM202.098 16.1982C201.131 16.1982 200.298 15.9915 199.599 15.5781C198.904 15.1605 198.368 14.5746 197.988 13.8203C197.613 13.0618 197.426 12.1733 197.426 11.1548C197.426 10.1491 197.613 9.26278 197.988 8.49574C198.368 7.72869 198.896 7.12997 199.574 6.69957C200.255 6.26918 201.052 6.05398 201.964 6.05398C202.518 6.05398 203.055 6.1456 203.575 6.32884C204.095 6.51207 204.561 6.79972 204.975 7.19176C205.388 7.58381 205.714 8.09304 205.953 8.71946C206.191 9.34162 206.311 10.098 206.311 10.9886V11.6662H198.506V10.2344H204.438C204.438 9.73153 204.336 9.28622 204.131 8.89844C203.926 8.50639 203.639 8.19744 203.268 7.97159C202.902 7.74574 202.471 7.63281 201.977 7.63281C201.44 7.63281 200.971 7.76491 200.571 8.02912C200.174 8.28906 199.868 8.62997 199.65 9.05185C199.437 9.46946 199.331 9.9233 199.331 10.4134V11.532C199.331 12.1882 199.446 12.7464 199.676 13.2067C199.91 13.6669 200.236 14.0185 200.654 14.2614C201.071 14.5 201.559 14.6193 202.118 14.6193C202.48 14.6193 202.81 14.5682 203.108 14.4659C203.407 14.3594 203.664 14.2017 203.882 13.9929C204.099 13.7841 204.265 13.5263 204.38 13.2195L206.189 13.5455C206.044 14.0781 205.784 14.5447 205.409 14.9453C205.039 15.3416 204.572 15.6506 204.01 15.8722C203.451 16.0895 202.814 16.1982 202.098 16.1982ZM208.431 16V6.18182H210.279V7.74148H210.381C210.56 7.21307 210.875 6.79758 211.327 6.49503C211.783 6.18821 212.298 6.0348 212.874 6.0348C212.993 6.0348 213.134 6.03906 213.296 6.04759C213.462 6.05611 213.592 6.06676 213.686 6.07955V7.90767C213.609 7.88636 213.472 7.86293 213.276 7.83736C213.08 7.80753 212.884 7.79261 212.688 7.79261C212.237 7.79261 211.834 7.88849 211.48 8.08026C211.131 8.26776 210.854 8.52983 210.649 8.86648C210.445 9.19886 210.343 9.57812 210.343 10.0043V16H208.431Z" fill="url(&quot;#paint1_linear_1256_25919&quot;)"></path>
<defs>
<linearGradient id="paint0_linear_1256_25919" x1="16.0044" y1="5.4526" x2="1.9092" y2="14.5468" gradientUnits="userSpaceOnUse">
<stop stop-color="#FFCF23"></stop>
<stop offset="1" stop-color="#AD8B3A"></stop>
</linearGradient>
<linearGradient id="paint1_linear_1256_25919" x1="17.6274" y1="10" x2="322.134" y2="17.5771" gradientUnits="userSpaceOnUse">
<stop stop-color="#FFCF23"></stop>
<stop offset="1" stop-color="#FF8D3A"></stop>
</linearGradient>
<linearGradient id="paint0_linear_1256_25919" x1="16.0044" y1="5.4526" x2="1.9092" y2="14.5468" gradientUnits="userSpaceOnUse">
<stop stop-color="#FFCF23"></stop>
<stop offset="1" stop-color="#AD8B3A"></stop>
</linearGradient><linearGradient id="paint1_linear_1256_25919" x1="17.6274" y1="10" x2="322.134" y2="17.5771" gradientUnits="userSpaceOnUse">
<stop stop-color="#FFCF23"></stop>
<stop offset="1" stop-color="#FF8D3A"></stop>
</linearGradient></defs>
</svg>