<svg xmlns:xlink="http://www.w3.org/1999/xlink" xmlns="http://www.w3.org/2000/svg" width="98" height="29" viewBox="0 0 98 29" fill="FFBB38" preserveAspectRatio="xMidYMid meet" aria-hidden="true" role="img">
<path d="M3.38068 14.0606V3.45455H4.06013V14.0606H3.38068ZM5.66761 6.63636C5.6179 6.21654 5.41627 5.89063 5.06274 5.65862C4.7092 5.42661 4.27557 5.31061 3.76184 5.31061C3.38621 5.31061 3.05753 5.37137 2.7758 5.4929C2.49684 5.61443 2.27865 5.78153 2.12121 5.9942C1.96654 6.20687 1.8892 6.44855 1.8892 6.71922C1.8892 6.94571 1.94306 7.14043 2.05078 7.30339C2.16126 7.46358 2.30212 7.59754 2.47337 7.70526C2.64461 7.81021 2.82414 7.89721 3.01196 7.96626C3.19977 8.03255 3.3724 8.08641 3.52983 8.12784L4.39157 8.35985C4.61253 8.41785 4.85835 8.49795 5.12902 8.60014C5.40246 8.70234 5.66347 8.84182 5.91205 9.01858C6.16339 9.19259 6.37054 9.41631 6.5335 9.68975C6.69646 9.96319 6.77794 10.2988 6.77794 10.6965C6.77794 11.155 6.65779 11.5693 6.4175 11.9394C6.17996 12.3095 5.83195 12.6037 5.37346 12.8219C4.91773 13.04 4.36395 13.1491 3.71212 13.1491C3.10448 13.1491 2.57832 13.0511 2.13364 12.855C1.69172 12.6589 1.34371 12.3855 1.08961 12.0347C0.838265 11.6839 0.696023 11.2765 0.662879 10.8125H1.72348C1.7511 11.1329 1.85882 11.398 2.04664 11.608C2.23722 11.8151 2.47751 11.9698 2.76752 12.072C3.06029 12.1714 3.37516 12.2211 3.71212 12.2211C4.10432 12.2211 4.45648 12.1576 4.76858 12.0305C5.08069 11.9007 5.32789 11.7212 5.51018 11.492C5.69247 11.2599 5.78362 10.9893 5.78362 10.6799C5.78362 10.3982 5.7049 10.169 5.54747 9.99219C5.39003 9.81542 5.18288 9.6718 4.92602 9.56132C4.66915 9.45084 4.39157 9.35417 4.09328 9.27131L3.04924 8.97301C2.38636 8.78243 1.86158 8.51038 1.47491 8.15684C1.08823 7.80331 0.894886 7.34067 0.894886 6.76894C0.894886 6.29388 1.02332 5.87958 1.28018 5.52604C1.53981 5.16974 1.88782 4.89354 2.32422 4.69744C2.76338 4.49858 3.25363 4.39915 3.79498 4.39915C4.34186 4.39915 4.82797 4.4972 5.25331 4.6933C5.67866 4.88664 6.01562 5.15179 6.2642 5.48875C6.51555 5.82572 6.64812 6.20825 6.66193 6.63636H5.66761Z" fill="#FFBB38"></path>
<path d="M8.75929 22.3894V18.8102L19.3029 2.15152H22.2876V7.2474H20.4677L13.3699 18.4947V18.6889H28.0872V22.3894H8.75929ZM20.6133 27V21.2975L20.6618 19.6959V2.15152H24.9084V27H20.6133ZM38.882 1.81179C40.071 1.81988 41.2277 2.03019 42.3521 2.44271C43.4845 2.84715 44.5037 3.51042 45.4096 4.43253C46.3155 5.34655 47.0354 6.57199 47.5693 8.10884C48.1031 9.6457 48.3701 11.5465 48.3701 13.8114C48.3781 15.9468 48.1517 17.8557 47.6906 19.5382C47.2376 21.2125 46.5865 22.6281 45.7372 23.7847C44.8879 24.9414 43.8646 25.8231 42.6675 26.4297C41.4704 27.0364 40.1236 27.3397 38.6272 27.3397C37.058 27.3397 35.6668 27.0324 34.4534 26.4176C33.2482 25.8029 32.2735 24.9616 31.5294 23.8939C30.7852 22.8262 30.3282 21.6048 30.1583 20.2298H34.5869C34.8134 21.2166 35.2745 22.0012 35.9701 22.5836C36.6738 23.1579 37.5595 23.445 38.6272 23.445C40.3501 23.445 41.6767 22.6968 42.6069 21.2004C43.5371 19.704 44.0022 17.6252 44.0022 14.964H43.8323C43.4359 15.6758 42.9223 16.2906 42.2914 16.8082C41.6605 17.3178 40.9446 17.7101 40.1438 17.9851C39.3512 18.2602 38.5099 18.3977 37.6202 18.3977C36.1642 18.3977 34.8538 18.0499 33.6891 17.3542C32.5324 16.6586 31.6143 15.7041 30.9349 14.4908C30.2635 13.2775 29.9238 11.8903 29.9157 10.3292C29.9157 8.71145 30.2878 7.25953 31.0319 5.97343C31.7842 4.67924 32.8317 3.66006 34.1744 2.9159C35.5171 2.16365 37.0863 1.79561 38.882 1.81179ZM38.8941 5.45171C38.0206 5.45171 37.2319 5.66606 36.5282 6.09476C35.8326 6.51537 35.2825 7.08967 34.8781 7.81765C34.4818 8.53754 34.2836 9.34237 34.2836 10.2321C34.2917 11.1138 34.4898 11.9146 34.8781 12.6345C35.2744 13.3544 35.8123 13.9246 36.4918 14.3452C37.1793 14.7658 37.9639 14.9761 38.8456 14.9761C39.5008 14.9761 40.1115 14.8508 40.6777 14.6C41.2439 14.3493 41.7373 14.0015 42.1579 13.5566C42.5866 13.1036 42.9183 12.59 43.1528 12.0157C43.3955 11.4414 43.5128 10.8347 43.5047 10.1957C43.5047 9.34641 43.3025 8.56181 42.898 7.84192C42.5017 7.12202 41.9557 6.54368 41.2601 6.10689C40.5725 5.6701 39.7839 5.45171 38.8941 5.45171ZM52.4886 27.2669C51.7525 27.2669 51.1216 27.0081 50.5959 26.4904C50.0701 25.9727 49.8113 25.3418 49.8193 24.5977C49.8113 23.8697 50.0701 23.2468 50.5959 22.7292C51.1216 22.2115 51.7525 21.9527 52.4886 21.9527C53.2004 21.9527 53.8192 22.2115 54.345 22.7292C54.8788 23.2468 55.1498 23.8697 55.1579 24.5977C55.1498 25.0911 55.0204 25.54 54.7696 25.9444C54.527 26.3489 54.2034 26.6724 53.799 26.9151C53.4026 27.1496 52.9658 27.2669 52.4886 27.2669ZM66.1953 1.81179C67.3844 1.81988 68.541 2.03019 69.6654 2.44271C70.7978 2.84715 71.817 3.51042 72.7229 4.43253C73.6288 5.34655 74.3487 6.57199 74.8826 8.10884C75.4164 9.6457 75.6834 11.5465 75.6834 13.8114C75.6915 15.9468 75.465 17.8557 75.0039 19.5382C74.551 21.2125 73.8998 22.6281 73.0505 23.7847C72.2012 24.9414 71.178 25.8231 69.9808 26.4297C68.7837 27.0364 67.4369 27.3397 65.9405 27.3397C64.3713 27.3397 62.9801 27.0324 61.7668 26.4176C60.5615 25.8029 59.5869 24.9616 58.8427 23.8939C58.0985 22.8262 57.6415 21.6048 57.4717 20.2298H61.9002C62.1267 21.2166 62.5878 22.0012 63.2834 22.5836C63.9871 23.1579 64.8728 23.445 65.9405 23.445C67.6634 23.445 68.99 22.6968 69.9202 21.2004C70.8504 19.704 71.3155 17.6252 71.3155 14.964H71.1456C70.7493 15.6758 70.2356 16.2906 69.6047 16.8082C68.9738 17.3178 68.2579 17.7101 67.4572 17.9851C66.6645 18.2602 65.8232 18.3977 64.9335 18.3977C63.4775 18.3977 62.1672 18.0499 61.0024 17.3542C59.8457 16.6586 58.9276 15.7041 58.2482 14.4908C57.5768 13.2775 57.2371 11.8903 57.229 10.3292C57.229 8.71145 57.6011 7.25953 58.3452 5.97343C59.0975 4.67924 60.145 3.66006 61.4877 2.9159C62.8304 2.16365 64.3996 1.79561 66.1953 1.81179ZM66.2075 5.45171C65.3339 5.45171 64.5452 5.66606 63.8415 6.09476C63.1459 6.51537 62.5959 7.08967 62.1914 7.81765C61.7951 8.53754 61.5969 9.34237 61.5969 10.2321C61.605 11.1138 61.8032 11.9146 62.1914 12.6345C62.5878 13.3544 63.1257 13.9246 63.8051 14.3452C64.4927 14.7658 65.2773 14.9761 66.1589 14.9761C66.8141 14.9761 67.4248 14.8508 67.991 14.6C68.5572 14.3493 69.0506 14.0015 69.4712 13.5566C69.8999 13.1036 70.2316 12.59 70.4662 12.0157C70.7088 11.4414 70.8261 10.8347 70.818 10.1957C70.818 9.34641 70.6158 8.56181 70.2114 7.84192C69.815 7.12202 69.269 6.54368 68.5734 6.10689C67.8859 5.6701 67.0972 5.45171 66.2075 5.45171ZM86.6419 1.81179C87.831 1.81988 88.9877 2.03019 90.112 2.44271C91.2444 2.84715 92.2636 3.51042 93.1695 4.43253C94.0754 5.34655 94.7953 6.57199 95.3292 8.10884C95.8631 9.6457 96.13 11.5465 96.13 13.8114C96.1381 15.9468 95.9116 17.8557 95.4505 19.5382C94.9976 21.2125 94.3464 22.6281 93.4971 23.7847C92.6478 24.9414 91.6246 25.8231 90.4274 26.4297C89.2303 27.0364 87.8835 27.3397 86.3871 27.3397C84.8179 27.3397 83.4267 27.0324 82.2134 26.4176C81.0082 25.8029 80.0335 24.9616 79.2893 23.8939C78.5451 22.8262 78.0881 21.6048 77.9183 20.2298H82.3468C82.5733 21.2166 83.0344 22.0012 83.73 22.5836C84.4337 23.1579 85.3194 23.445 86.3871 23.445C88.11 23.445 89.4366 22.6968 90.3668 21.2004C91.297 19.704 91.7621 17.6252 91.7621 14.964H91.5922C91.1959 15.6758 90.6822 16.2906 90.0513 16.8082C89.4204 17.3178 88.7046 17.7101 87.9038 17.9851C87.1111 18.2602 86.2699 18.3977 85.3801 18.3977C83.9241 18.3977 82.6138 18.0499 81.449 17.3542C80.2923 16.6586 79.3742 15.7041 78.6948 14.4908C78.0234 13.2775 77.6837 11.8903 77.6756 10.3292C77.6756 8.71145 78.0477 7.25953 78.7919 5.97343C79.5441 4.67924 80.5916 3.66006 81.9343 2.9159C83.277 2.16365 84.8462 1.79561 86.6419 1.81179ZM86.6541 5.45171C85.7805 5.45171 84.9918 5.66606 84.2881 6.09476C83.5925 6.51537 83.0425 7.08967 82.638 7.81765C82.2417 8.53754 82.0435 9.34237 82.0435 10.2321C82.0516 11.1138 82.2498 11.9146 82.638 12.6345C83.0344 13.3544 83.5723 13.9246 84.2517 14.3452C84.9393 14.7658 85.7239 14.9761 86.6055 14.9761C87.2607 14.9761 87.8714 14.8508 88.4376 14.6C89.0038 14.3493 89.4972 14.0015 89.9179 13.5566C90.3466 13.1036 90.6782 12.59 90.9128 12.0157C91.1554 11.4414 91.2727 10.8347 91.2646 10.1957C91.2646 9.34641 91.0624 8.56181 90.658 7.84192C90.2616 7.12202 89.7156 6.54368 89.02 6.10689C88.3325 5.6701 87.5438 5.45171 86.6541 5.45171Z" fill="url(&quot;#paint0_linear_1256_25914&quot;)"></path>
<defs>
<linearGradient id="paint0_linear_1256_25914" x1="15.6479" y1="0.00386014" x2="138.972" y2="29.2029" gradientUnits="userSpaceOnUse">
<stop stop-color="#FFCF23"></stop>
<stop offset="1" stop-color="#FF8D3A"></stop>
</linearGradient>
<linearGradient id="paint0_linear_1256_25914" x1="15.6479" y1="0.00386014" x2="138.972" y2="29.2029" gradientUnits="userSpaceOnUse">
<stop stop-color="#FFCF23"></stop>
<stop offset="1" stop-color="#FF8D3A"></stop>
</linearGradient></defs>
</svg>