<svg xmlns:xlink="http://www.w3.org/1999/xlink" xmlns="http://www.w3.org/2000/svg" width="22" height="22" viewBox="0 0 22 22" fill="none" preserveAspectRatio="xMidYMid meet" aria-hidden="true" role="img">
<path d="M21 21H2.77778C2.1555 21 1.84436 21 1.60668 20.8789C1.39761 20.7724 1.22763 20.6024 1.1211 20.3933C1 20.1556 1 19.8445 1 19.2222V1M21 5.44444L14.9619 11.4826C14.7419 11.7026 14.6319 11.8126 14.505 11.8538C14.3934 11.8901 14.2732 11.8901 14.1617 11.8538C14.0348 11.8126 13.9248 11.7026 13.7048 11.4826L11.6285 9.40632C11.4085 9.18631 11.2985 9.0763 11.1717 9.03509C11.0601 8.99883 10.9399 8.99883 10.8283 9.03509C10.7015 9.0763 10.5915 9.18631 10.3715 9.40632L5.44444 14.3333M21 5.44444H16.5556M21 5.44444V9.88889" stroke="url(&quot;#paint0_linear_1226_2633&quot;)" stroke-width="1.5px" stroke-linecap="round" stroke-linejoin="round" fill="none"></path>
<defs>
<linearGradient id="paint0_linear_1226_2633" x1="20.9995" y1="2.9995" x2="4.99993" y2="17.4999" gradientUnits="userSpaceOnUse">
<stop stop-color="#FFCF23"></stop>
<stop offset="1" stop-color="#AD8B3A"></stop>
</linearGradient>
<linearGradient id="paint0_linear_1226_2633" x1="20.9995" y1="2.9995" x2="4.99993" y2="17.4999" gradientUnits="userSpaceOnUse">
<stop stop-color="#FFCF23"></stop>
<stop offset="1" stop-color="#AD8B3A"></stop>
</linearGradient></defs>
</svg>