<svg xmlns:xlink="http://www.w3.org/1999/xlink" xmlns="http://www.w3.org/2000/svg" width="416" height="797" viewBox="0 0 386 706" fill="none" preserveAspectRatio="xMidYMid meet" aria-hidden="true" role="img">
<rect opacity="0.3" width="386" height="705.833" rx="4.16667" fill="#171D27"></rect>
<mask id="mask0_1256_26157" style="mask-type:alpha" maskUnits="userSpaceOnUse" x="0" y="0" width="386" height="706" fill="none">
<rect opacity="0.3" width="386" height="705.833" rx="4.16667" fill="#171D27"></rect>
</mask>
<g mask="url(#mask0_1256_26157)" fill="none">
<g opacity="0.02" fill="none">
<line x1="11.4045" y1="-0.968506" x2="11.4044" y2="755.281" stroke="#FFFFFF" stroke-width="0.833333px" fill="none"></line>
<line x1="23.4045" y1="-0.968506" x2="23.4044" y2="755.281" stroke="#FFFFFF" stroke-width="0.833333px" fill="none"></line>
<line x1="35.4045" y1="-0.968506" x2="35.4044" y2="755.281" stroke="#FFFFFF" stroke-width="0.833333px" fill="none"></line>
<line x1="47.4045" y1="-0.968506" x2="47.4044" y2="755.281" stroke="#FFFFFF" stroke-width="0.833333px" fill="none"></line>
<line x1="59.4045" y1="-0.968506" x2="59.4044" y2="755.281" stroke="#FFFFFF" stroke-width="0.833333px" fill="none"></line>
<line x1="71.4045" y1="-0.968506" x2="71.4044" y2="755.281" stroke="#FFFFFF" stroke-width="0.833333px" fill="none"></line>
<line x1="83.4045" y1="-0.968506" x2="83.4044" y2="755.281" stroke="#FFFFFF" stroke-width="0.833333px" fill="none"></line>
<line x1="95.4045" y1="-0.968506" x2="95.4044" y2="755.281" stroke="#FFFFFF" stroke-width="0.833333px" fill="none"></line>
<line x1="107.404" y1="-0.968506" x2="107.404" y2="755.281" stroke="#FFFFFF" stroke-width="0.833333px" fill="none"></line>
<line x1="119.404" y1="-0.968506" x2="119.404" y2="755.281" stroke="#FFFFFF" stroke-width="0.833333px" fill="none"></line>
<line x1="131.404" y1="-0.968506" x2="131.404" y2="755.281" stroke="#FFFFFF" stroke-width="0.833333px" fill="none"></line>
<line x1="143.404" y1="-0.968506" x2="143.404" y2="755.281" stroke="#FFFFFF" stroke-width="0.833333px" fill="none"></line>
<line x1="155.404" y1="-0.968506" x2="155.404" y2="755.281" stroke="#FFFFFF" stroke-width="0.833333px" fill="none"></line>
<line x1="167.404" y1="-0.968506" x2="167.404" y2="755.281" stroke="#FFFFFF" stroke-width="0.833333px" fill="none"></line>
<line x1="179.404" y1="-0.968506" x2="179.404" y2="755.281" stroke="#FFFFFF" stroke-width="0.833333px" fill="none"></line>
<line x1="191.404" y1="-0.968506" x2="191.404" y2="755.281" stroke="#FFFFFF" stroke-width="0.833333px" fill="none"></line>
<line x1="203.404" y1="-0.968506" x2="203.404" y2="755.281" stroke="#FFFFFF" stroke-width="0.833333px" fill="none"></line>
<line x1="215.404" y1="-0.968506" x2="215.404" y2="755.281" stroke="#FFFFFF" stroke-width="0.833333px" fill="none"></line>
<line x1="227.404" y1="-0.968506" x2="227.404" y2="755.281" stroke="#FFFFFF" stroke-width="0.833333px" fill="none"></line>
<line x1="239.404" y1="-0.968506" x2="239.404" y2="755.281" stroke="#FFFFFF" stroke-width="0.833333px" fill="none"></line>
<line x1="251.404" y1="-0.968506" x2="251.404" y2="755.281" stroke="#FFFFFF" stroke-width="0.833333px" fill="none"></line>
<line x1="263.404" y1="-0.968506" x2="263.404" y2="755.281" stroke="#FFFFFF" stroke-width="0.833333px" fill="none"></line>
<line x1="275.404" y1="-0.968506" x2="275.404" y2="755.281" stroke="#FFFFFF" stroke-width="0.833333px" fill="none"></line>
<line x1="287.404" y1="-0.968506" x2="287.404" y2="755.281" stroke="#FFFFFF" stroke-width="0.833333px" fill="none"></line>
<line x1="299.404" y1="-0.968506" x2="299.404" y2="755.281" stroke="#FFFFFF" stroke-width="0.833333px" fill="none"></line>
<line x1="311.404" y1="-0.968506" x2="311.404" y2="755.281" stroke="#FFFFFF" stroke-width="0.833333px" fill="none"></line>
<line x1="323.404" y1="-0.968506" x2="323.404" y2="755.281" stroke="#FFFFFF" stroke-width="0.833333px" fill="none"></line>
<line x1="335.404" y1="-0.968506" x2="335.404" y2="755.281" stroke="#FFFFFF" stroke-width="0.833333px" fill="none"></line>
<line x1="347.404" y1="-0.968506" x2="347.404" y2="755.281" stroke="#FFFFFF" stroke-width="0.833333px" fill="none"></line>
<line x1="359.404" y1="-0.968506" x2="359.404" y2="755.281" stroke="#FFFFFF" stroke-width="0.833333px" fill="none"></line>
<line x1="371.404" y1="-0.968506" x2="371.404" y2="755.281" stroke="#FFFFFF" stroke-width="0.833333px" fill="none"></line>
<line x1="383.404" y1="-0.968506" x2="383.404" y2="755.281" stroke="#FFFFFF" stroke-width="0.833333px" fill="none"></line>
</g>
<g opacity="0.02" fill="none">
<line x1="1427" y1="11.0817" x2="-13.0002" y2="11.0816" stroke="#FFFFFF" stroke-width="0.833333px" fill="none"></line>
<line x1="1427" y1="22.7153" x2="-13.0002" y2="22.7151" stroke="#FFFFFF" stroke-width="0.833333px" fill="none"></line>
<line x1="1427" y1="34.351" x2="-13.0002" y2="34.3509" stroke="#FFFFFF" stroke-width="0.833333px" fill="none"></line>
<line x1="1427" y1="45.9843" x2="-13.0002" y2="45.9842" stroke="#FFFFFF" stroke-width="0.833333px" fill="none"></line>
<line x1="1427" y1="57.62" x2="-13.0002" y2="57.6199" stroke="#FFFFFF" stroke-width="0.833333px" fill="none"></line>
<line x1="1427" y1="69.2538" x2="-13.0002" y2="69.2537" stroke="#FFFFFF" stroke-width="0.833333px" fill="none"></line>
<line x1="1427" y1="80.8891" x2="-13.0002" y2="80.889" stroke="#FFFFFF" stroke-width="0.833333px" fill="none"></line>
<line x1="1427" y1="418.293" x2="-13.0002" y2="418.293" stroke="#FFFFFF" stroke-width="0.833333px" fill="none"></line>
<line x1="1427" y1="429.926" x2="-13.0002" y2="429.926" stroke="#FFFFFF" stroke-width="0.833333px" fill="none"></line>
<line x1="1427" y1="441.561" x2="-13.0002" y2="441.561" stroke="#FFFFFF" stroke-width="0.833333px" fill="none"></line>
<line x1="1427" y1="453.196" x2="-13.0002" y2="453.196" stroke="#FFFFFF" stroke-width="0.833333px" fill="none"></line>
<line x1="1427" y1="464.83" x2="-13.0002" y2="464.83" stroke="#FFFFFF" stroke-width="0.833333px" fill="none"></line>
<line x1="1427" y1="476.465" x2="-13.0002" y2="476.465" stroke="#FFFFFF" stroke-width="0.833333px" fill="none"></line>
<line x1="1427" y1="488.1" x2="-13.0002" y2="488.099" stroke="#FFFFFF" stroke-width="0.833333px" fill="none"></line>
<line x1="1427" y1="499.734" x2="-13.0002" y2="499.734" stroke="#FFFFFF" stroke-width="0.833333px" fill="none"></line>
<line x1="1427" y1="511.37" x2="-13.0002" y2="511.37" stroke="#FFFFFF" stroke-width="0.833333px" fill="none"></line>
<line x1="1427" y1="523.003" x2="-13.0002" y2="523.003" stroke="#FFFFFF" stroke-width="0.833333px" fill="none"></line>
<line x1="1427" y1="534.639" x2="-13.0002" y2="534.639" stroke="#FFFFFF" stroke-width="0.833333px" fill="none"></line>
<line x1="1427" y1="546.272" x2="-13.0002" y2="546.272" stroke="#FFFFFF" stroke-width="0.833333px" fill="none"></line>
<line x1="1427" y1="557.908" x2="-13.0002" y2="557.908" stroke="#FFFFFF" stroke-width="0.833333px" fill="none"></line>
<line x1="1427" y1="569.542" x2="-13.0002" y2="569.542" stroke="#FFFFFF" stroke-width="0.833333px" fill="none"></line>
<line x1="1427" y1="581.177" x2="-13.0002" y2="581.177" stroke="#FFFFFF" stroke-width="0.833333px" fill="none"></line>
<line x1="1427" y1="592.812" x2="-13.0002" y2="592.812" stroke="#FFFFFF" stroke-width="0.833333px" fill="none"></line>
<line x1="1427" y1="604.446" x2="-13.0002" y2="604.446" stroke="#FFFFFF" stroke-width="0.833333px" fill="none"></line>
<line x1="1427" y1="616.081" x2="-13.0002" y2="616.081" stroke="#FFFFFF" stroke-width="0.833333px" fill="none"></line>
<line x1="1427" y1="627.715" x2="-13.0002" y2="627.715" stroke="#FFFFFF" stroke-width="0.833333px" fill="none"></line>
<line x1="1427" y1="639.351" x2="-13.0002" y2="639.351" stroke="#FFFFFF" stroke-width="0.833333px" fill="none"></line>
<line x1="1427" y1="650.985" x2="-13.0002" y2="650.985" stroke="#FFFFFF" stroke-width="0.833333px" fill="none"></line>
<line x1="1427" y1="662.62" x2="-13.0002" y2="662.62" stroke="#FFFFFF" stroke-width="0.833333px" fill="none"></line>
<line x1="1427" y1="674.254" x2="-13.0002" y2="674.254" stroke="#FFFFFF" stroke-width="0.833333px" fill="none"></line>
<line x1="1427" y1="685.889" x2="-13.0002" y2="685.889" stroke="#FFFFFF" stroke-width="0.833333px" fill="none"></line>
<line x1="1427" y1="697.523" x2="-13.0002" y2="697.523" stroke="#FFFFFF" stroke-width="0.833333px" fill="none"></line>
</g>
<rect width="385.833" height="687.5" rx="4.16667" fill="url(&quot;#paint0_radial_1256_26157&quot;)"></rect>
<rect x="0.416667" y="0.416667" width="385" height="686.667" rx="3.75" stroke="url(&quot;#paint1_linear_1256_26157&quot;)" stroke-opacity="0.15" stroke-width="0.833333px" fill="none"></rect>
<g opacity="0.5" filter="url(#filter0_f_1256_26157)" fill="none">
<ellipse cx="377.5" cy="629.527" rx="87.5" ry="110.644" fill="#284068"></ellipse>
</g>
<g opacity="0.15" filter="url(#filter1_f_1256_26157)" fill="none">
<ellipse cx="30.5" cy="658.619" rx="64.5" ry="72.0141" fill="#AD8B3A"></ellipse>
</g>
</g>
<defs>
<filter id="filter0_f_1256_26157" x="123.333" y="352.216" width="508.333" height="554.622" filterUnits="userSpaceOnUse" color-interpolation-filters="sRGB">
<feFlood flood-opacity="0" result="BackgroundImageFix">
<feBlend mode="normal" in="SourceGraphic" in2="BackgroundImageFix" result="shape">
<feGaussianBlur stdDeviation="83.3333" result="effect1_foregroundBlur_1256_26157">
</feGaussianBlur></feBlend></feFlood></filter>
<filter id="filter1_f_1256_26157" x="-200.667" y="419.938" width="462.333" height="477.361" filterUnits="userSpaceOnUse" color-interpolation-filters="sRGB">
<feFlood flood-opacity="0" result="BackgroundImageFix">
<feBlend mode="normal" in="SourceGraphic" in2="BackgroundImageFix" result="shape">
<feGaussianBlur stdDeviation="83.3333" result="effect1_foregroundBlur_1256_26157">
</feGaussianBlur></feBlend></feFlood></filter>
<radialGradient id="paint0_radial_1256_26157" cx="0" cy="0" r="1" gradientUnits="userSpaceOnUse" gradientTransform="translate(35.4847 23.2264) rotate(39.3094) scale(341.7 223.044)">
<stop stop-color="#242C39" stop-opacity="0"></stop>
<stop offset="1" stop-color="#171D27"></stop>
</radialGradient>
<linearGradient id="paint1_linear_1256_26157" x1="192.917" y1="0" x2="192.917" y2="687.5" gradientUnits="userSpaceOnUse">
<stop stop-color="white"></stop>
<stop offset="1" stop-color="white" stop-opacity="0"></stop>
</linearGradient>
<radialGradient id="paint0_radial_1256_26157" cx="0" cy="0" r="1" gradientUnits="userSpaceOnUse" gradientTransform="translate(35.4847 23.2264) rotate(39.3094) scale(341.7 223.044)">
<stop stop-color="#242C39" stop-opacity="0"></stop>
<stop offset="1" stop-color="#171D27"></stop>
</radialGradient><linearGradient id="paint1_linear_1256_26157" x1="192.917" y1="0" x2="192.917" y2="687.5" gradientUnits="userSpaceOnUse">
<stop stop-color="white"></stop>
<stop offset="1" stop-color="white" stop-opacity="0"></stop>
</linearGradient></defs>
</svg>