<svg xmlns:xlink="http://www.w3.org/1999/xlink" xmlns="http://www.w3.org/2000/svg" width="38" height="40" viewBox="0 0 34 22" fill="none" preserveAspectRatio="xMidYMid meet" aria-hidden="true" role="img">
<path d="M32.6975 9.29329C32.6975 11.1736 31.1732 12.6979 29.2929 12.6979C27.4126 12.6979 25.8883 11.1737 25.8883 9.29329C25.8883 7.41298 27.4126 5.88867 29.2929 5.88867C31.1732 5.88867 32.6975 7.41305 32.6975 9.29329Z" fill="#FFFFFF"></path>
<path d="M29.2936 13.8262C27.1408 13.8262 25.2805 15.2704 24.7374 17.3425V17.4118V21.0783H34V18.5326C34 15.9368 31.8894 13.8262 29.2936 13.8262Z" fill="#FFFFFF"></path>
<path d="M4.70639 13.8262C2.11059 13.8262 0 15.9368 0 18.5326V21.0783H9.26257V17.4118V17.3425C8.72335 15.2705 6.85934 13.8262 4.70639 13.8262Z" fill="#FFFFFF"></path>
<path d="M8.111 9.29329C8.111 11.1736 6.58675 12.6979 4.70638 12.6979C2.82607 12.6979 1.30176 11.1737 1.30176 9.29329C1.30176 7.41298 2.82613 5.88867 4.70638 5.88867C6.58669 5.88867 8.111 7.41305 8.111 9.29329Z" fill="#FFFFFF"></path>
<path d="M17.0001 10.8027C13.3567 10.8027 10.3911 13.7682 10.3911 17.4117V21.0782H23.6091V17.4117C23.6091 13.7683 20.6436 10.8027 17.0001 10.8027Z" fill="#FFFFFF"></path>
<path d="M21.8374 4.83733C21.8374 7.50884 19.6717 9.67467 17.0001 9.67467C14.3284 9.67467 12.1627 7.50891 12.1627 4.83733C12.1627 2.1657 14.3284 0 17.0001 0C19.6717 0 21.8374 2.16576 21.8374 4.83733Z" fill="#FFFFFF"></path>
</svg>