<svg xmlns:xlink="http://www.w3.org/1999/xlink" xmlns="http://www.w3.org/2000/svg" width="38" height="40" viewBox="0 0 23 31" fill="none" preserveAspectRatio="xMidYMid meet" aria-hidden="true" role="img">
<path d="M22.9327 20.9247C22.9327 19.1596 21.6492 17.6191 19.8255 17.2019L16.313 16.4316L13.2396 24.2624L12.2938 19.7693H12.3952C12.8343 19.7693 13.2058 19.4163 13.2058 18.9991V18.0042C13.2058 17.5869 12.8343 17.2339 12.3952 17.2339H10.5714C10.1322 17.2339 9.76076 17.5869 9.76076 18.0042V18.9991C9.76076 19.4163 10.1322 19.7693 10.5714 19.7693H10.6727L9.72701 24.2624L6.65357 16.4316L3.14107 17.2019C1.31725 17.6192 0.0338611 19.1596 0.0338611 20.9247L0 28.1777C0 29.4615 1.08071 30.4884 2.43167 30.4884H20.5683C21.9193 30.4884 23 29.4615 23 28.1777L22.9327 20.9247Z" fill="#FFFFFF"></path>
<path d="M11.4834 15.6935C16.0429 15.6935 19.7243 12.1954 19.7243 7.8628C19.7243 3.53024 16.0429 0 11.4834 0C6.92392 0 3.24255 3.49815 3.24255 7.83071C3.24255 12.1633 6.92392 15.6935 11.4834 15.6935ZM8.37621 10.6228L9.18681 9.69208C9.25431 9.59576 9.38943 9.59576 9.45705 9.66001C9.79468 9.9168 10.1324 10.1093 10.4702 10.2698C10.8754 10.4303 11.2808 10.5266 11.6522 10.5266C11.99 10.5266 12.2602 10.4625 12.4291 10.302C12.6317 10.1736 12.7331 9.98105 12.7331 9.72426C12.7331 9.62793 12.7331 9.56379 12.6994 9.46747C12.6656 9.40333 12.6318 9.307 12.598 9.24286C12.5305 9.17872 12.4966 9.11447 12.3954 9.08239C12.3279 9.01825 12.2265 8.98607 12.1251 8.92193C12.0238 8.85779 11.8888 8.82561 11.7536 8.76146C11.6185 8.69732 11.4496 8.66514 11.2808 8.601C11.1119 8.53685 10.9768 8.50468 10.8417 8.4726C10.7065 8.44053 10.5714 8.37628 10.4364 8.34421C10.2676 8.28007 10.1324 8.24789 10.0312 8.18375C9.92982 8.1196 9.79482 8.08742 9.6597 8.02328C9.52459 7.95914 9.42333 7.89489 9.32196 7.83074C9.2206 7.7666 9.11934 7.67028 9.05173 7.60613C8.95036 7.50981 8.88286 7.4136 8.81535 7.31727C8.74785 7.22095 8.68023 7.09266 8.64648 6.99634C8.57898 6.86795 8.54512 6.73955 8.54512 6.61128C8.51136 6.48288 8.51136 6.32241 8.51136 6.16195C8.51136 5.52008 8.71399 4.97456 9.1531 4.52523C9.59221 4.0759 10.1663 3.81923 10.9432 3.75497L10.9431 2.72793C10.9431 2.63161 11.0444 2.5354 11.1457 2.5354H12.1252C12.2265 2.5354 12.3278 2.63172 12.3278 2.72793V3.78706C12.733 3.88338 13.1384 4.01167 13.5436 4.17212C13.8814 4.30052 14.1516 4.49305 14.4217 4.65352C14.5231 4.71766 14.5231 4.84605 14.4555 4.91031L13.6786 5.84103C13.6111 5.90517 13.5097 5.93735 13.4084 5.8731C12.7666 5.48804 12.1588 5.26331 11.5508 5.26331C11.2131 5.26331 10.9428 5.32745 10.7739 5.45584C10.6051 5.58424 10.5037 5.74471 10.5037 5.96931C10.5037 6.19392 10.6051 6.35437 10.8077 6.51484C11.0103 6.64323 11.3818 6.8037 11.8547 6.96417C12.091 7.02831 12.2599 7.09256 12.4288 7.12463C12.5976 7.18877 12.7665 7.22095 12.9354 7.2851C13.1043 7.34924 13.2731 7.41349 13.4082 7.47763C13.5434 7.54178 13.6785 7.60603 13.8135 7.70224C13.9486 7.79856 14.0837 7.86271 14.1512 7.95903C14.2526 8.05535 14.3201 8.15157 14.4215 8.24789C14.5228 8.37629 14.5903 8.4725 14.6241 8.60089C14.6578 8.72928 14.7254 8.85768 14.7592 9.01816C14.7929 9.17863 14.7929 9.33909 14.7929 9.53162C14.7929 10.2055 14.5903 10.7512 14.1512 11.1683C13.7121 11.5856 13.138 11.8743 12.3611 11.9707V12.8693C12.3611 12.9656 12.2598 13.0619 12.1585 13.0619H11.179C11.0777 13.0619 10.9764 12.9655 10.9764 12.8693L10.9767 12.0349C10.031 11.9065 9.18667 11.5215 8.47744 10.8796C8.30857 10.8154 8.30859 10.7191 8.37621 10.6228Z" fill="#FFFFFF"></path>
</svg>