<svg xmlns:xlink="http://www.w3.org/1999/xlink" xmlns="http://www.w3.org/2000/svg" width="117" height="59" viewBox="0 0 117 59" fill="none" preserveAspectRatio="xMidYMid meet" aria-hidden="true" role="img">
<g filter="url(#filter0_b_1250_25780)" fill="none">
<rect x="0.166748" width="116.667" height="58.3333" rx="29.1667" fill="#FFFFFF" fill-opacity="0.13"></rect>
<rect x="0.583415" y="0.416667" width="115.833" height="57.5" rx="28.75" stroke="url(&quot;#paint0_linear_1250_25780&quot;)" stroke-opacity="0.53" stroke-width="0.833333px" fill="none"></rect>
</g>
<g opacity="0.9" fill="none">
<path d="M24.5965 38.6217H21.5298V29.5367H24.5965V38.6217ZM27.6056 35.555H18.5206V32.6033H27.6056V35.555Z" fill="#FFFFFF" fill-opacity="0.5"></path>
<path d="M35.7585 29.2492H32.4043V25.7417H35.7585V29.2492ZM35.7585 42.4167H32.4043V38.9475H35.7585V42.4167ZM34.2635 40.6917C33.0368 40.6917 32.0146 40.5128 31.1968 40.155C30.3791 39.7844 29.7657 39.2733 29.3568 38.6217C28.9479 37.9572 28.7435 37.1778 28.7435 36.2833V36.0342H32.2893V36.1875C32.2893 36.5325 32.3468 36.8008 32.4618 36.9925C32.5768 37.1714 32.7813 37.2928 33.0752 37.3567C33.3818 37.4206 33.8227 37.4525 34.3977 37.4525C35.0749 37.4525 35.5157 37.395 35.7202 37.28C35.9374 37.165 36.046 36.9669 36.046 36.6858C36.046 36.4814 36.0141 36.3217 35.9502 36.2067C35.8991 36.0917 35.7968 36.0022 35.6435 35.9383C35.4902 35.8617 35.2666 35.8042 34.9727 35.7658L32.1743 35.325C31.3054 35.1844 30.5963 34.9481 30.0468 34.6158C29.5102 34.2708 29.1141 33.8428 28.8585 33.3317C28.6157 32.8078 28.4943 32.2136 28.4943 31.5492C28.4943 30.7825 28.6924 30.0925 29.0885 29.4792C29.4846 28.8658 30.0916 28.3803 30.9093 28.0225C31.7271 27.6519 32.7621 27.4667 34.0143 27.4667C35.2154 27.4667 36.2057 27.6519 36.9852 28.0225C37.7646 28.3803 38.346 28.8786 38.7293 29.5175C39.1127 30.1436 39.3043 30.8592 39.3043 31.6642V31.99H35.7585V31.76C35.7585 31.5044 35.701 31.3 35.586 31.1467C35.4838 30.9933 35.2921 30.8847 35.011 30.8208C34.7299 30.7442 34.321 30.7058 33.7843 30.7058C33.1071 30.7058 32.6535 30.7633 32.4235 30.8783C32.1935 30.9933 32.0785 31.1722 32.0785 31.415C32.0785 31.5428 32.1104 31.6514 32.1743 31.7408C32.2382 31.8303 32.3404 31.9069 32.481 31.9708C32.6343 32.0219 32.8324 32.0731 33.0752 32.1242L35.8735 32.6225C36.7807 32.7758 37.5091 33.0378 38.0585 33.4083C38.6207 33.7661 39.0232 34.2069 39.266 34.7308C39.5216 35.2547 39.6493 35.8489 39.6493 36.5133C39.6493 37.2544 39.4641 37.9444 39.0935 38.5833C38.7357 39.2222 38.1607 39.7333 37.3685 40.1167C36.5891 40.5 35.5541 40.6917 34.2635 40.6917ZM45.9182 40.6917C44.5765 40.6917 43.5032 40.5256 42.6982 40.1933C41.8932 39.8611 41.3118 39.3883 40.954 38.775C40.5962 38.1489 40.4174 37.4142 40.4174 36.5708V35.7083H43.9632V36.36C43.9632 36.59 44.0143 36.7689 44.1165 36.8967C44.2187 37.0244 44.404 37.1203 44.6724 37.1842C44.9407 37.2353 45.324 37.2608 45.8224 37.2608C46.4996 37.2608 47.0107 37.2161 47.3557 37.1267C47.7007 37.0244 47.8732 36.7369 47.8732 36.2642C47.8732 35.8936 47.7901 35.6508 47.624 35.5358C47.4579 35.4081 47.1896 35.3442 46.819 35.3442H44.4999V32.5458H46.3782C46.7487 32.5458 46.9979 32.4883 47.1257 32.3733C47.2662 32.2583 47.3365 32.0411 47.3365 31.7217C47.3365 31.3894 47.2279 31.1722 47.0107 31.07C46.8062 30.955 46.3526 30.8975 45.6499 30.8975C45.1899 30.8975 44.8385 30.9231 44.5957 30.9742C44.3529 31.0253 44.1868 31.1211 44.0974 31.2617C44.0079 31.3894 43.9632 31.5683 43.9632 31.7983V32.2008H40.4174V31.5875C40.4174 30.7442 40.6282 30.0158 41.0499 29.4025C41.4843 28.7764 42.1104 28.2972 42.9282 27.965C43.7587 27.6328 44.7682 27.4667 45.9565 27.4667C46.9276 27.4667 47.7837 27.5881 48.5249 27.8308C49.2787 28.0736 49.8665 28.4442 50.2882 28.9425C50.7226 29.4281 50.9399 30.0542 50.9399 30.8208C50.9399 31.6258 50.7226 32.2647 50.2882 32.7375C49.8537 33.2103 49.1957 33.485 48.314 33.5617V33.8108C49.4001 33.8492 50.2051 34.1494 50.729 34.7117C51.2657 35.2611 51.534 35.9831 51.534 36.8775C51.534 37.6697 51.3296 38.3533 50.9207 38.9283C50.5118 39.4906 49.8921 39.925 49.0615 40.2317C48.231 40.5383 47.1832 40.6917 45.9182 40.6917ZM56.6008 40.5H52.3074V36.5325H56.6008V40.5ZM53.4191 43.8733H52.3074V41.4967H53.3041C53.5341 41.4967 53.7002 41.4519 53.8024 41.3625C53.9174 41.2731 53.9749 41.0878 53.9749 40.8067V40.0592H56.6008V40.7492C56.6008 41.7969 56.3196 42.5764 55.7574 43.0875C55.208 43.6114 54.4285 43.8733 53.4191 43.8733ZM69.4267 38.2575H57.3709V35.6317L63.5234 27.6583H66.6475L64.3284 31.875H63.945L61.76 34.8458V35.0183H69.4267V38.2575ZM67.7017 40.5H64.1175V27.6583H67.7017V40.5ZM75.8582 40.6917C74.5548 40.6917 73.4559 40.4169 72.5615 39.8675C71.6798 39.3053 71.0154 38.5322 70.5682 37.5483C70.1209 36.5517 69.8973 35.3953 69.8973 34.0792C69.8973 32.7631 70.1209 31.6131 70.5682 30.6292C71.0154 29.6325 71.6798 28.8594 72.5615 28.31C73.4559 27.7478 74.5548 27.4667 75.8582 27.4667C77.1615 27.4667 78.254 27.7478 79.1357 28.31C80.0301 28.8594 80.7009 29.6325 81.1482 30.6292C81.5954 31.6131 81.819 32.7631 81.819 34.0792C81.819 35.3953 81.5954 36.5517 81.1482 37.5483C80.7009 38.5322 80.0301 39.3053 79.1357 39.8675C78.254 40.4169 77.1615 40.6917 75.8582 40.6917ZM75.8582 37.1842C76.4076 37.1842 76.8293 37.1139 77.1232 36.9733C77.4298 36.82 77.6407 36.5197 77.7557 36.0725C77.8834 35.6253 77.9473 34.9608 77.9473 34.0792C77.9473 33.1847 77.8834 32.5203 77.7557 32.0858C77.6407 31.6386 77.4298 31.3447 77.1232 31.2042C76.8293 31.0508 76.4076 30.9742 75.8582 30.9742C75.3087 30.9742 74.8807 31.0508 74.574 31.2042C74.2673 31.3447 74.0565 31.6386 73.9415 32.0858C73.8265 32.5203 73.769 33.1847 73.769 34.0792C73.769 34.9608 73.8265 35.6253 73.9415 36.0725C74.0565 36.5197 74.2673 36.82 74.574 36.9733C74.8807 37.1139 75.3087 37.1842 75.8582 37.1842ZM88.0886 40.6917C86.4019 40.6917 85.1114 40.3339 84.2169 39.6183C83.3353 38.89 82.8944 37.9061 82.8944 36.6667V36.36H86.4594V36.6475C86.4594 36.8519 86.5169 37.0117 86.6319 37.1267C86.7469 37.2289 86.9322 37.3056 87.1878 37.3567C87.4561 37.395 87.8139 37.4142 88.2611 37.4142C88.8872 37.4142 89.3408 37.3375 89.6219 37.1842C89.903 37.0181 90.0436 36.7178 90.0436 36.2833C90.0436 35.785 89.8967 35.4656 89.6028 35.325C89.3217 35.1844 88.8489 35.1142 88.1844 35.1142C87.7117 35.1142 87.2964 35.1589 86.9386 35.2483C86.5808 35.3378 86.2997 35.4272 86.0953 35.5167L85.6928 35.2292V32.9292H86.4019C86.6192 32.7631 86.9705 32.5842 87.4561 32.3925C87.9544 32.2008 88.6125 32.105 89.4303 32.105C90.3503 32.105 91.1169 32.2775 91.7303 32.6225C92.3564 32.9547 92.8228 33.4275 93.1294 34.0408C93.4361 34.6414 93.5894 35.3442 93.5894 36.1492C93.5894 36.9925 93.4105 37.7592 93.0528 38.4492C92.7078 39.1392 92.1328 39.6886 91.3278 40.0975C90.5355 40.4936 89.4558 40.6917 88.0886 40.6917ZM86.4019 30.8975L86.0953 35.5167L82.8753 35.1333L83.2011 27.6583H92.8994V30.8975H86.4019Z" fill="#FFFFFF"></path>
</g>
<path d="M19.6569 20.167V15.3185H21.5981C21.9548 15.3185 22.2523 15.3714 22.4907 15.4771C22.729 15.5829 22.9081 15.7297 23.0281 15.9175C23.148 16.1037 23.208 16.3183 23.208 16.5614C23.208 16.7508 23.1701 16.9173 23.0944 17.0609C23.0186 17.203 22.9144 17.3198 22.7819 17.4113C22.6509 17.5013 22.5009 17.5652 22.332 17.6031V17.6504C22.5167 17.6583 22.6895 17.7104 22.8505 17.8067C23.0131 17.9029 23.1449 18.0379 23.2459 18.2115C23.3469 18.3835 23.3974 18.5887 23.3974 18.827C23.3974 19.0843 23.3335 19.3139 23.2056 19.516C23.0794 19.7164 22.8923 19.875 22.6445 19.9918C22.3968 20.1086 22.0914 20.167 21.7283 20.167H19.6569ZM20.6819 19.3289H21.5176C21.8033 19.3289 22.0117 19.2745 22.1426 19.1656C22.2736 19.0551 22.3391 18.9083 22.3391 18.7252C22.3391 18.5911 22.3068 18.4727 22.2421 18.3701C22.1774 18.2675 22.085 18.187 21.9651 18.1286C21.8467 18.0702 21.7055 18.041 21.5413 18.041H20.6819V19.3289ZM20.6819 17.3474H21.4419C21.5824 17.3474 21.707 17.3229 21.8159 17.274C21.9264 17.2235 22.0132 17.1525 22.0764 17.0609C22.1411 16.9694 22.1734 16.8597 22.1734 16.7319C22.1734 16.5567 22.1111 16.4154 21.9864 16.3081C21.8633 16.2008 21.6881 16.1471 21.4608 16.1471H20.6819V17.3474ZM28.1925 15.3185H29.2176V18.4672C29.2176 18.8207 29.1332 19.1301 28.9643 19.3952C28.797 19.6604 28.5626 19.8671 28.2612 20.0155C27.9597 20.1623 27.6086 20.2356 27.2077 20.2356C26.8052 20.2356 26.4533 20.1623 26.1518 20.0155C25.8504 19.8671 25.616 19.6604 25.4487 19.3952C25.2814 19.1301 25.1977 18.8207 25.1977 18.4672V15.3185H26.2228V18.3796C26.2228 18.5642 26.2631 18.7284 26.3436 18.872C26.4256 19.0156 26.5409 19.1285 26.6892 19.2106C26.8376 19.2926 27.0104 19.3337 27.2077 19.3337C27.4065 19.3337 27.5794 19.2926 27.7261 19.2106C27.8745 19.1285 27.9889 19.0156 28.0694 18.872C28.1515 18.7284 28.1925 18.5642 28.1925 18.3796V15.3185ZM33.8246 16.7129C33.8056 16.5219 33.7243 16.3736 33.5807 16.2678C33.4371 16.1621 33.2422 16.1092 32.996 16.1092C32.8287 16.1092 32.6874 16.1329 32.5722 16.1802C32.457 16.226 32.3686 16.2899 32.307 16.372C32.2471 16.4541 32.2171 16.5472 32.2171 16.6514C32.2139 16.7382 32.2321 16.8139 32.2715 16.8786C32.3126 16.9433 32.3686 16.9994 32.4396 17.0467C32.5106 17.0925 32.5927 17.1327 32.6858 17.1675C32.7789 17.2006 32.8784 17.229 32.9841 17.2527L33.4197 17.3569C33.6312 17.4042 33.8253 17.4673 34.0021 17.5463C34.1789 17.6252 34.332 17.7222 34.4614 17.8374C34.5908 17.9527 34.691 18.0884 34.7621 18.2446C34.8347 18.4009 34.8718 18.58 34.8733 18.782C34.8718 19.0788 34.796 19.336 34.6461 19.5538C34.4977 19.7701 34.2831 19.9381 34.0021 20.0581C33.7228 20.1765 33.3858 20.2356 32.9912 20.2356C32.5998 20.2356 32.2589 20.1757 31.9685 20.0557C31.6797 19.9358 31.454 19.7582 31.2914 19.5231C31.1304 19.2863 31.046 18.9935 31.0381 18.6447H32.0301C32.0411 18.8073 32.0877 18.943 32.1697 19.0519C32.2534 19.1593 32.3646 19.2405 32.5035 19.2958C32.644 19.3494 32.8026 19.3763 32.9794 19.3763C33.153 19.3763 33.3037 19.351 33.4316 19.3005C33.561 19.25 33.6612 19.1798 33.7322 19.0898C33.8033 18.9999 33.8388 18.8965 33.8388 18.7797C33.8388 18.6708 33.8064 18.5792 33.7417 18.5051C33.6786 18.4309 33.5855 18.3677 33.4623 18.3157C33.3408 18.2636 33.1917 18.2162 33.0149 18.1736L32.487 18.041C32.0782 17.9416 31.7554 17.7862 31.5187 17.5747C31.2819 17.3632 31.1644 17.0783 31.1659 16.72C31.1644 16.4265 31.2425 16.17 31.4003 15.9506C31.5597 15.7312 31.7783 15.56 32.0561 15.4369C32.3339 15.3138 32.6495 15.2522 33.0031 15.2522C33.3629 15.2522 33.677 15.3138 33.9453 15.4369C34.2152 15.56 34.4251 15.7312 34.575 15.9506C34.725 16.17 34.8023 16.4241 34.807 16.7129H33.8246ZM37.7213 15.3185V20.167H36.6962V15.3185H37.7213ZM43.7534 15.3185V20.167H42.868L40.7586 17.1154H40.7231V20.167H39.698V15.3185H40.5976L42.6904 18.3677H42.733V15.3185H43.7534ZM45.7337 20.167V15.3185H49.0007V16.1637H46.7588V17.319H48.8326V18.1642H46.7588V19.3218H49.0102V20.167H45.7337ZM53.5792 16.7129C53.5603 16.5219 53.479 16.3736 53.3354 16.2678C53.1918 16.1621 52.9969 16.1092 52.7506 16.1092C52.5834 16.1092 52.4421 16.1329 52.3269 16.1802C52.2117 16.226 52.1233 16.2899 52.0617 16.372C52.0018 16.4541 51.9718 16.5472 51.9718 16.6514C51.9686 16.7382 51.9868 16.8139 52.0262 16.8786C52.0673 16.9433 52.1233 16.9994 52.1943 17.0467C52.2653 17.0925 52.3474 17.1327 52.4405 17.1675C52.5336 17.2006 52.6331 17.229 52.7388 17.2527L53.1744 17.3569C53.3859 17.4042 53.58 17.4673 53.7568 17.5463C53.9336 17.6252 54.0867 17.7222 54.2161 17.8374C54.3455 17.9527 54.4457 18.0884 54.5167 18.2446C54.5893 18.4009 54.6264 18.58 54.628 18.782C54.6264 19.0788 54.5507 19.336 54.4007 19.5538C54.2524 19.7701 54.0377 19.9381 53.7568 20.0581C53.4774 20.1765 53.1405 20.2356 52.7459 20.2356C52.3545 20.2356 52.0136 20.1757 51.7232 20.0557C51.4344 19.9358 51.2087 19.7582 51.0461 19.5231C50.8851 19.2863 50.8007 18.9935 50.7928 18.6447H51.7847C51.7958 18.8073 51.8423 18.943 51.9244 19.0519C52.0081 19.1593 52.1193 19.2405 52.2582 19.2958C52.3987 19.3494 52.5573 19.3763 52.7341 19.3763C52.9077 19.3763 53.0584 19.351 53.1863 19.3005C53.3157 19.25 53.4159 19.1798 53.4869 19.0898C53.5579 18.9999 53.5935 18.8965 53.5935 18.7797C53.5935 18.6708 53.5611 18.5792 53.4964 18.5051C53.4333 18.4309 53.3401 18.3677 53.217 18.3157C53.0955 18.2636 52.9464 18.2162 52.7696 18.1736L52.2417 18.041C51.8329 17.9416 51.5101 17.7862 51.2734 17.5747C51.0366 17.3632 50.9191 17.0783 50.9206 16.72C50.9191 16.4265 50.9972 16.17 51.155 15.9506C51.3144 15.7312 51.533 15.56 51.8108 15.4369C52.0886 15.3138 52.4042 15.2522 52.7578 15.2522C53.1176 15.2522 53.4317 15.3138 53.7 15.4369C53.9699 15.56 54.1798 15.7312 54.3297 15.9506C54.4797 16.17 54.557 16.4241 54.5617 16.7129H53.5792ZM59.0811 16.7129C59.0621 16.5219 58.9808 16.3736 58.8372 16.2678C58.6936 16.1621 58.4987 16.1092 58.2525 16.1092C58.0852 16.1092 57.9439 16.1329 57.8287 16.1802C57.7135 16.226 57.6251 16.2899 57.5636 16.372C57.5036 16.4541 57.4736 16.5472 57.4736 16.6514C57.4704 16.7382 57.4886 16.8139 57.528 16.8786C57.5691 16.9433 57.6251 16.9994 57.6961 17.0467C57.7672 17.0925 57.8492 17.1327 57.9423 17.1675C58.0355 17.2006 58.1349 17.229 58.2406 17.2527L58.6762 17.3569C58.8877 17.4042 59.0819 17.4673 59.2586 17.5463C59.4354 17.6252 59.5885 17.7222 59.7179 17.8374C59.8473 17.9527 59.9475 18.0884 60.0186 18.2446C60.0912 18.4009 60.1283 18.58 60.1298 18.782C60.1283 19.0788 60.0525 19.336 59.9026 19.5538C59.7542 19.7701 59.5396 19.9381 59.2586 20.0581C58.9793 20.1765 58.6423 20.2356 58.2477 20.2356C57.8563 20.2356 57.5154 20.1757 57.225 20.0557C56.9362 19.9358 56.7105 19.7582 56.5479 19.5231C56.3869 19.2863 56.3025 18.9935 56.2946 18.6447H57.2866C57.2976 18.8073 57.3442 18.943 57.4262 19.0519C57.5099 19.1593 57.6212 19.2405 57.76 19.2958C57.9005 19.3494 58.0591 19.3763 58.2359 19.3763C58.4095 19.3763 58.5602 19.351 58.6881 19.3005C58.8175 19.25 58.9177 19.1798 58.9887 19.0898C59.0598 18.9999 59.0953 18.8965 59.0953 18.7797C59.0953 18.6708 59.0629 18.5792 58.9982 18.5051C58.9351 18.4309 58.842 18.3677 58.7189 18.3157C58.5973 18.2636 58.4482 18.2162 58.2714 18.1736L57.7435 18.041C57.3347 17.9416 57.0119 17.7862 56.7752 17.5747C56.5385 17.3632 56.4209 17.0783 56.4225 16.72C56.4209 16.4265 56.499 16.17 56.6568 15.9506C56.8162 15.7312 57.0348 15.56 57.3126 15.4369C57.5904 15.3138 57.906 15.2522 58.2596 15.2522C58.6194 15.2522 58.9335 15.3138 59.2018 15.4369C59.4717 15.56 59.6816 15.7312 59.8315 15.9506C59.9815 16.17 60.0588 16.4241 60.0636 16.7129H59.0811ZM68.9069 17.016H67.87C67.8511 16.8818 67.8124 16.7626 67.754 16.6585C67.6956 16.5527 67.6206 16.4628 67.5291 16.3886C67.4375 16.3144 67.3318 16.2576 67.2118 16.2181C67.0935 16.1787 66.9648 16.1589 66.826 16.1589C66.575 16.1589 66.3564 16.2213 66.1702 16.346C65.9839 16.4691 65.8395 16.649 65.7369 16.8857C65.6344 17.1209 65.5831 17.4066 65.5831 17.7427C65.5831 18.0884 65.6344 18.3788 65.7369 18.614C65.8411 18.8491 65.9863 19.0267 66.1725 19.1466C66.3588 19.2666 66.5742 19.3266 66.8189 19.3266C66.9562 19.3266 67.0832 19.3084 67.2 19.2721C67.3184 19.2358 67.4233 19.1829 67.5149 19.1135C67.6064 19.0425 67.6822 18.9564 67.7421 18.8554C67.8037 18.7544 67.8463 18.6392 67.87 18.5098L68.9069 18.5145C68.8801 18.7371 68.813 18.9517 68.7057 19.1585C68.5999 19.3636 68.4571 19.5475 68.2772 19.7101C68.0988 19.8711 67.8858 19.9989 67.638 20.0936C67.3918 20.1867 67.1132 20.2333 66.8023 20.2333C66.3698 20.2333 65.9832 20.1354 65.6422 19.9397C65.3029 19.744 65.0346 19.4607 64.8373 19.0898C64.6416 18.7189 64.5438 18.2699 64.5438 17.7427C64.5438 17.214 64.6432 16.7642 64.8421 16.3933C65.0409 16.0224 65.3108 15.7399 65.6517 15.5458C65.9926 15.3501 66.3761 15.2522 66.8023 15.2522C67.0832 15.2522 67.3436 15.2917 67.5835 15.3706C67.825 15.4495 68.0389 15.5647 68.2251 15.7162C68.4113 15.8662 68.5629 16.05 68.6796 16.2678C68.798 16.4856 68.8738 16.735 68.9069 17.016ZM71.5199 20.167H70.4214L72.0952 15.3185H73.4162L75.0876 20.167H73.9891L72.7746 16.4265H72.7368L71.5199 20.167ZM71.4512 18.2612H74.0459V19.0614H71.4512V18.2612ZM76.8045 15.3185H78.0687L79.4039 18.5761H79.4608L80.796 15.3185H82.0602V20.167H81.0659V17.0112H81.0256L79.7709 20.1433H79.0938L77.8391 16.9994H77.7988V20.167H76.8045V15.3185ZM84.0381 20.167V15.3185H85.951C86.3187 15.3185 86.632 15.3887 86.8908 15.5292C87.1497 15.6681 87.347 15.8614 87.4827 16.1092C87.62 16.3554 87.6887 16.6395 87.6887 16.9615C87.6887 17.2835 87.6192 17.5676 87.4803 17.8138C87.3414 18.06 87.1402 18.2517 86.8766 18.3891C86.6146 18.5264 86.2974 18.595 85.9249 18.595H84.7057V17.7735H85.7592C85.9565 17.7735 86.1191 17.7396 86.2469 17.6717C86.3763 17.6023 86.4726 17.5068 86.5357 17.3853C86.6004 17.2622 86.6328 17.1209 86.6328 16.9615C86.6328 16.8005 86.6004 16.66 86.5357 16.5401C86.4726 16.4186 86.3763 16.3247 86.2469 16.2584C86.1175 16.1905 85.9533 16.1566 85.7545 16.1566H85.0632V20.167H84.0381ZM92.4826 15.3185H93.5077V18.4672C93.5077 18.8207 93.4233 19.1301 93.2544 19.3952C93.0871 19.6604 92.8527 19.8671 92.5513 20.0155C92.2498 20.1623 91.8987 20.2356 91.4978 20.2356C91.0953 20.2356 90.7434 20.1623 90.4419 20.0155C90.1405 19.8671 89.9061 19.6604 89.7388 19.3952C89.5715 19.1301 89.4878 18.8207 89.4878 18.4672V15.3185H90.5129V18.3796C90.5129 18.5642 90.5532 18.7284 90.6337 18.872C90.7157 19.0156 90.831 19.1285 90.9793 19.2106C91.1277 19.2926 91.3005 19.3337 91.4978 19.3337C91.6966 19.3337 91.8695 19.2926 92.0162 19.2106C92.1646 19.1285 92.279 19.0156 92.3595 18.872C92.4416 18.7284 92.4826 18.5642 92.4826 18.3796V15.3185ZM98.1147 16.7129C98.0957 16.5219 98.0144 16.3736 97.8708 16.2678C97.7272 16.1621 97.5323 16.1092 97.2861 16.1092C97.1188 16.1092 96.9775 16.1329 96.8623 16.1802C96.7471 16.226 96.6587 16.2899 96.5971 16.372C96.5372 16.4541 96.5072 16.5472 96.5072 16.6514C96.504 16.7382 96.5222 16.8139 96.5616 16.8786C96.6027 16.9433 96.6587 16.9994 96.7297 17.0467C96.8007 17.0925 96.8828 17.1327 96.9759 17.1675C97.0691 17.2006 97.1685 17.229 97.2742 17.2527L97.7098 17.3569C97.9213 17.4042 98.1155 17.4673 98.2922 17.5463C98.469 17.6252 98.6221 17.7222 98.7515 17.8374C98.8809 17.9527 98.9811 18.0884 99.0522 18.2446C99.1248 18.4009 99.1619 18.58 99.1634 18.782C99.1619 19.0788 99.0861 19.336 98.9362 19.5538C98.7878 19.7701 98.5732 19.9381 98.2922 20.0581C98.0129 20.1765 97.6759 20.2356 97.2813 20.2356C96.8899 20.2356 96.549 20.1757 96.2586 20.0557C95.9698 19.9358 95.7441 19.7582 95.5815 19.5231C95.4205 19.2863 95.3361 18.9935 95.3282 18.6447H96.3202C96.3312 18.8073 96.3778 18.943 96.4598 19.0519C96.5435 19.1593 96.6548 19.2405 96.7936 19.2958C96.9341 19.3494 97.0927 19.3763 97.2695 19.3763C97.4431 19.3763 97.5938 19.351 97.7217 19.3005C97.8511 19.25 97.9513 19.1798 98.0223 19.0898C98.0934 18.9999 98.1289 18.8965 98.1289 18.7797C98.1289 18.6708 98.0965 18.5792 98.0318 18.5051C97.9687 18.4309 97.8756 18.3677 97.7525 18.3157C97.6309 18.2636 97.4818 18.2162 97.305 18.1736L96.7771 18.041C96.3683 17.9416 96.0455 17.7862 95.8088 17.5747C95.5721 17.3632 95.4545 17.0783 95.456 16.72C95.4545 16.4265 95.5326 16.17 95.6904 15.9506C95.8498 15.7312 96.0684 15.56 96.3462 15.4369C96.624 15.3138 96.9396 15.2522 97.2932 15.2522C97.653 15.2522 97.9671 15.3138 98.2354 15.4369C98.5053 15.56 98.7152 15.7312 98.8651 15.9506C99.0151 16.17 99.0924 16.4241 99.0971 16.7129H98.1147Z" fill="#FFFFFF" fill-opacity="0.47"></path>
<path d="M58.5001 8.33398L53.4482 0.833984H63.5519L58.5001 8.33398Z" fill="#FFFFFF" fill-opacity="0.15"></path>
<defs>
<filter id="filter0_b_1250_25780" x="-8.16658" y="-8.33333" width="133.333" height="74.9997" filterUnits="userSpaceOnUse" color-interpolation-filters="sRGB">
<feFlood flood-opacity="0" result="BackgroundImageFix"></feFlood>
<feGaussianBlur in="BackgroundImageFix" stdDeviation="4.16667"></feGaussianBlur>
<feComposite in2="SourceAlpha" operator="in" result="effect1_backgroundBlur_1250_25780"></feComposite>
<feBlend mode="normal" in="SourceGraphic" in2="effect1_backgroundBlur_1250_25780" result="shape"></feBlend>
</filter>
<linearGradient id="paint0_linear_1250_25780" x1="58.5001" y1="3.47694e-07" x2="64.3334" y2="96.6667" gradientUnits="userSpaceOnUse">
<stop stop-color="white"></stop>
<stop offset="1" stop-color="white" stop-opacity="0"></stop>
</linearGradient>
<linearGradient id="paint0_linear_1250_25780" x1="58.5001" y1="3.47694e-07" x2="64.3334" y2="96.6667" gradientUnits="userSpaceOnUse">
<stop stop-color="white"></stop>
<stop offset="1" stop-color="white" stop-opacity="0"></stop>
</linearGradient></defs>
</svg>