<svg xmlns:xlink="http://www.w3.org/1999/xlink" xmlns="http://www.w3.org/2000/svg" width="71" height="31" viewBox="0 0 71 31" fill="none" preserveAspectRatio="xMidYMid meet" aria-hidden="true" role="img">
<path opacity="0.25" d="M6.05627 17.2727V4.54545H6.87161V17.2727H6.05627ZM8.80059 8.36364C8.74093 7.85985 8.49898 7.46875 8.07473 7.19034C7.65049 6.91193 7.13013 6.77273 6.51366 6.77273C6.0629 6.77273 5.66848 6.84564 5.33042 6.99148C4.99566 7.13731 4.73383 7.33783 4.54491 7.59304C4.3593 7.84825 4.2665 8.13826 4.2665 8.46307C4.2665 8.73485 4.33113 8.96851 4.46039 9.16406C4.59296 9.3563 4.762 9.51705 4.96749 9.64631C5.17298 9.77225 5.38842 9.87666 5.6138 9.95952C5.83918 10.0391 6.04633 10.1037 6.23525 10.1534L7.26934 10.4318C7.53449 10.5014 7.82947 10.5975 8.15428 10.7202C8.48241 10.8428 8.79562 11.0102 9.09391 11.2223C9.39552 11.4311 9.6441 11.6996 9.83965 12.0277C10.0352 12.3558 10.133 12.7585 10.133 13.2358C10.133 13.786 9.9888 14.2831 9.70045 14.7273C9.41541 15.1714 8.99779 15.5244 8.4476 15.7862C7.90073 16.0481 7.23619 16.179 6.454 16.179C5.72483 16.179 5.09344 16.0613 4.55982 15.826C4.02952 15.5907 3.6119 15.2625 3.30698 14.8416C3.00537 14.4207 2.83468 13.9318 2.79491 13.375H4.06763C4.10078 13.7595 4.23004 14.0777 4.45542 14.3295C4.68411 14.5781 4.97246 14.7637 5.32047 14.8864C5.6718 15.0057 6.04964 15.0653 6.454 15.0653C6.92464 15.0653 7.34723 14.9891 7.72175 14.8366C8.09628 14.6809 8.39292 14.4654 8.61167 14.1903C8.83042 13.9119 8.93979 13.5871 8.93979 13.2159C8.93979 12.8778 8.84533 12.6027 8.65641 12.3906C8.46749 12.1785 8.21891 12.0062 7.91067 11.8736C7.60243 11.741 7.26934 11.625 6.91138 11.5256L5.65854 11.1676C4.86309 10.9389 4.23335 10.6125 3.76934 10.1882C3.30532 9.76397 3.07331 9.20881 3.07331 8.52273C3.07331 7.95265 3.22743 7.45549 3.53567 7.03125C3.84723 6.60369 4.26484 6.27225 4.78851 6.03693C5.3155 5.7983 5.90381 5.67898 6.55343 5.67898C7.20968 5.67898 7.79301 5.79664 8.30343 6.03196C8.81384 6.26397 9.2182 6.58215 9.5165 6.98651C9.81811 7.39086 9.9772 7.8499 9.99377 8.36364H8.80059Z" fill="#FFFFFF"></path>
<path opacity="0.25" d="M23.9142 2.81818V29H20.7438V6.14205H20.5904L14.1983 10.3864V7.16477L20.7438 2.81818H23.9142ZM29.0304 23.6307V21.0227L40.5361 2.81818H42.4281V6.85795H41.1497L32.4566 20.6136V20.8182H47.9509V23.6307H29.0304ZM41.3543 29V22.8381V21.6236V2.81818H44.3713V29H41.3543ZM51.7599 29L63.4701 5.83523V5.63068H49.9701V2.81818H66.7428V5.78409L55.0838 29H51.7599Z" fill="#FFFFFF"></path>
<rect x="-0.000549316" y="15" width="69" height="2" fill="#6A6E76"></rect>
</svg>