<svg xmlns:xlink="http://www.w3.org/1999/xlink" xmlns="http://www.w3.org/2000/svg" width="38" height="40" viewBox="0 0 34 23" fill="none" preserveAspectRatio="xMidYMid meet" aria-hidden="true" role="img">
<path d="M27.1329 19.8138L18.2176 22.3906C16.8954 22.7587 15.4598 22.7587 14.0999 22.3906L5.18465 19.8138C4.88239 19.7402 4.65575 19.4456 4.65575 19.1143V9.87458C4.65575 9.39597 5.14691 9.06479 5.60016 9.17513L14.0999 11.6415C15.4221 12.0096 16.8577 12.0096 18.2176 11.6415L26.7173 9.17513C27.2085 9.02786 27.6617 9.39598 27.6617 9.87458V19.1143C27.6616 19.4456 27.435 19.7033 27.1328 19.8138H27.1329ZM32.0061 9.39606L30.5328 6.59841C30.3816 6.30386 30.0039 6.15673 29.6638 6.23029L18.2175 9.54334C16.8953 9.91146 15.4598 9.91146 14.0999 9.54334L0.538341 5.60449C-0.179447 5.38365 -0.179447 4.42658 0.538341 4.24252L14.1002 0.303673C15.4601 -0.101224 16.8579 -0.101224 18.2178 0.303673L33.4796 4.72107C33.8574 4.83156 34.084 5.19968 33.9708 5.60458L32.9886 9.28575C32.8751 9.72743 32.2329 9.80114 32.0062 9.39611L32.0061 9.39606Z" fill="#FFFFFF"></path>
</svg>